<svg xmlns="http://www.w3.org/2000/svg" viewBox="0 0 1065 1422.33"><defs><style>.cls-1{fill:#f5f5f5;}.cls-2{fill:#2083b6;}.cls-16,.cls-18,.cls-3{fill:#81be41;}.cls-14,.cls-4,.cls-7{fill:#fff;}.cls-5{fill:#e6e6e5;}.cls-6{fill:#d6e186;}.cls-15,.cls-20,.cls-21,.cls-7,.cls-9{stroke:#c8c8c8;}.cls-11,.cls-12,.cls-14,.cls-15,.cls-17,.cls-18,.cls-20,.cls-21,.cls-7,.cls-8,.cls-9{stroke-linecap:round;stroke-linejoin:round;}.cls-11,.cls-12,.cls-14,.cls-15,.cls-16,.cls-17,.cls-18,.cls-20,.cls-21,.cls-7,.cls-8,.cls-9{stroke-width:3px;}.cls-15,.cls-19,.cls-8{fill:#f0f0f0;}.cls-8{stroke:#f0f0f0;}.cls-11,.cls-17,.cls-9{fill:none;}.cls-10{fill:#64b6e0;}.cls-11,.cls-14{stroke:#fff;}.cls-12{fill:#231f20;stroke:#231f20;}.cls-13{fill:#4f7436;}.cls-16,.cls-17,.cls-18{stroke:#81be41;}.cls-16{stroke-miterlimit:10;}.cls-20{fill:#c8c8c8;}.cls-21{fill:#e6e6e6;}.cls-22{fill:#9cd338;}</style></defs><title>NextbusRedesign</title><g id="Layer_8" data-name="Layer 8"><rect class="cls-1" x="-16.12" y="-21.02" width="1092.92" height="1476.93"/><rect class="cls-1" x="-16.12" y="1163.55" width="1092.92" height="1532.97"/><circle class="cls-2" cx="107.62" cy="126.36" r="12.62"/><circle class="cls-3" cx="155.12" cy="126.36" r="12.62"/><circle class="cls-3" cx="200" cy="126.36" r="12.62"/><circle class="cls-3" cx="248.81" cy="126.36" r="12.62"/><path class="cls-4" d="M948.7,716.43v-7.38h8.24v7.38h3.47c7.9,0,13.63,4.94,13.63,15,0,2.17-.26,4.42-.35,6.51h-9.2a39.09,39.09,0,0,0,.26-4.52c0-3.29-1.39-4.68-5.12-4.68h-2.69v8.5H948.7v-8.5H912.08V716.43Z"/><path class="cls-4" d="M974,743V755.3h-62V743Z"/><path class="cls-4" d="M958.16,786.8c0,14.15-9.38,23.26-23.69,23.26S910.86,801,910.86,786.8s9.37-23.17,23.61-23.17S958.16,772.74,958.16,786.8Zm-38,0c0,8.42,7.2,10.94,14.32,10.94s14.4-2.52,14.4-10.94S941.67,776,934.47,776,920.15,778.47,920.15,786.8Z"/><path class="cls-4" d="M912.08,869.33V856.66l30.11-8v-.17l-30.11-7.64V828.11l44.86-14.23v13l-30.46,8.25v.17l30.46,7.46v12l-30.37,7.63v.18l30.37,8.24v12.67Z"/><rect class="cls-5" x="303.37" y="315.76" width="75.63" height="452.34"/><rect class="cls-5" x="303.37" y="836.76" width="75.63" height="318.67"/><rect class="cls-5" x="690.04" y="315.76" width="75.63" height="452.34"/><rect class="cls-6" x="303.65" y="714.12" width="442.13" height="75.63"/><rect class="cls-5" x="303.65" y="1079.8" width="310.66" height="75.63"/><rect class="cls-5" x="148.07" y="336.59" width="794.08" height="75.63"/><rect class="cls-7" x="68.07" y="236.32" width="160" height="274.07"/><circle class="cls-8" cx="148.07" cy="373.35" r="48.04"/><rect class="cls-7" x="261.19" y="236.32" width="160" height="274.07"/><line class="cls-9" x1="261.19" y1="268.65" x2="421.19" y2="268.65"/><path class="cls-3" d="M391.69,304.82h-120v39h120a19.5,19.5,0,0,0,0-39Z"/><path class="cls-10" d="M391.69,353.85h-120v39h120a19.5,19.5,0,0,0,0-39Z"/><polyline class="cls-11" points="393.69 325.98 397.03 322.65 400.36 325.98"/><polyline class="cls-11" points="393.69 375.02 397.03 371.69 400.36 375.02"/><rect class="cls-12" x="271.69" y="284.98" width="43.17" height="6.67"/><rect class="cls-12" x="286.19" y="322.65" width="43.17" height="6.67"/><rect class="cls-12" x="286.19" y="370.02" width="43.17" height="6.67"/><rect class="cls-13" x="271.69" y="244.82" width="14.5" height="14.5"/><rect class="cls-13" x="397.03" y="244.82" width="14.5" height="14.5"/><rect class="cls-12" x="319.61" y="248.73" width="43.17" height="6.67"/><rect class="cls-7" x="454.32" y="236.32" width="160" height="274.07"/><line class="cls-9" x1="454.32" y1="268.65" x2="614.32" y2="268.65"/><path class="cls-3" d="M584.82,304.82h-120V436h120c3.11,0,19.5-2.67,19.5-20.69v-91A19.5,19.5,0,0,0,584.82,304.82Z"/><path class="cls-10" d="M584.82,446.22h-120v39h120a19.5,19.5,0,0,0,0-39Z"/><polyline class="cls-11" points="593.48 322.65 590.15 325.98 586.82 322.65"/><polyline class="cls-11" points="586.82 467.38 590.15 464.05 593.48 467.38"/><rect class="cls-12" x="464.82" y="284.98" width="43.17" height="6.67"/><rect class="cls-13" x="464.82" y="244.82" width="14.5" height="14.5"/><rect class="cls-13" x="590.15" y="244.82" width="14.5" height="14.5"/><rect class="cls-12" x="512.73" y="248.73" width="43.17" height="6.67"/><rect class="cls-12" x="480.39" y="322.65" width="43.17" height="6.67"/><rect class="cls-14" x="464.82" y="347.32" width="128.67" height="32.67"/><rect class="cls-14" x="464.82" y="389.32" width="128.67" height="32.67"/><rect class="cls-12" x="480.39" y="360.32" width="43.17" height="6.67"/><rect class="cls-12" x="566.78" y="360.32" width="16.42" height="6.67"/><rect class="cls-12" x="566.73" y="402.32" width="16.42" height="6.67"/><rect class="cls-12" x="480.39" y="402.32" width="43.17" height="6.67"/><rect class="cls-9" x="647.44" y="236.32" width="160" height="274.07"/><rect class="cls-15" x="647.44" y="268.65" width="160" height="241.74"/><line class="cls-9" x1="647.44" y1="268.65" x2="807.44" y2="268.65"/><path class="cls-16" d="M777.94,285.16h-120V358h120c3.11,0,19.5-2.67,19.5-20.69V304.66A19.5,19.5,0,0,0,777.94,285.16Z"/><polyline class="cls-11" points="718.94 347.4 722.27 344.07 725.61 347.4"/><rect class="cls-13" x="657.94" y="244.82" width="14.5" height="14.5"/><rect class="cls-13" x="783.27" y="244.82" width="14.5" height="14.5"/><rect class="cls-12" x="705.86" y="248.73" width="43.17" height="6.67"/><rect class="cls-14" x="657.94" y="299.92" width="128.67" height="32.67"/><rect class="cls-12" x="673.52" y="312.92" width="43.17" height="6.67"/><rect class="cls-12" x="759.9" y="312.92" width="16.42" height="6.67"/><polyline class="cls-17" points="647.44 499.32 754.28 408.98 807.44 408.98"/><rect class="cls-9" x="647.44" y="268.65" width="160" height="241.74"/><rect class="cls-18" x="669.86" y="459.98" width="29.68" height="14.8" transform="translate(-137.11 576.42) rotate(-41.88)"/><polygon class="cls-18" points="745.78 390.98 762.12 390.98 753.95 399.15 745.78 390.98"/><rect class="cls-9" x="840.57" y="236.32" width="160" height="274.07"/><rect class="cls-15" x="840.57" y="268.65" width="160" height="241.74"/><line class="cls-9" x1="840.57" y1="268.65" x2="1000.57" y2="268.65"/><path class="cls-16" d="M971.07,285.16h-120v93.52h120c3.11,0,19.5-2.67,19.5-20.69V304.66A19.5,19.5,0,0,0,971.07,285.16Z"/><polyline class="cls-11" points="918.73 367.65 915.4 370.99 912.07 367.65"/><rect class="cls-13" x="851.07" y="244.82" width="14.5" height="14.5"/><rect class="cls-13" x="976.4" y="244.82" width="14.5" height="14.5"/><rect class="cls-12" x="898.98" y="248.73" width="43.17" height="6.67"/><rect class="cls-14" x="851.07" y="299.92" width="128.67" height="58.02"/><rect class="cls-12" x="866.64" y="312.92" width="43.17" height="6.67"/><rect class="cls-12" x="866.64" y="328.09" width="43.17" height="6.67"/><rect class="cls-12" x="953.02" y="312.92" width="16.42" height="6.67"/><rect class="cls-12" x="953.02" y="328.09" width="16.42" height="6.67"/><rect class="cls-12" x="953.02" y="343.82" width="16.42" height="6.67"/><polyline class="cls-17" points="840.57 499.32 947.41 408.98 1000.57 408.98"/><rect class="cls-9" x="840.57" y="268.65" width="160" height="241.74"/><rect class="cls-18" x="862.99" y="459.98" width="29.68" height="14.8" transform="translate(-87.79 705.33) rotate(-41.88)"/><polygon class="cls-18" points="938.91 390.98 955.24 390.98 947.08 399.15 938.91 390.98"/><rect class="cls-7" x="261.19" y="611.56" width="160" height="274.07"/><polyline class="cls-3" points="420.07 680.06 353.36 680.06 338.03 680.06 318.53 680.06 318.53 719.06 338.03 719.06 353.36 719.06 421.19 719.06"/><polygon class="cls-10" points="421.19 729.1 353.11 729.1 337.77 729.1 318.27 729.1 318.27 768.1 337.77 768.1 353.11 768.1 421.19 768.1 421.19 729.1"/><line class="cls-9" x1="307.77" y1="643.9" x2="420.94" y2="643.9"/><rect class="cls-12" x="318.27" y="660.23" width="43.17" height="6.67"/><rect class="cls-13" x="261.19" y="611.56" width="46.58" height="274.07"/><rect class="cls-12" x="332.77" y="697.9" width="43.17" height="6.67"/><rect class="cls-12" x="332.77" y="745.27" width="43.17" height="6.67"/><rect class="cls-13" x="318.27" y="620.06" width="14.5" height="14.5"/><rect class="cls-12" x="366.19" y="623.98" width="43.17" height="6.67"/><rect class="cls-19" x="277.23" y="620.06" width="14.5" height="14.5"/><rect class="cls-19" x="277.23" y="670.74" width="14.5" height="14.5"/><rect class="cls-19" x="277.23" y="721.42" width="14.5" height="14.5"/><rect class="cls-19" x="277.23" y="772.1" width="14.5" height="14.5"/><line class="cls-7" x1="421.19" y1="611.56" x2="421.19" y2="885.64"/><rect class="cls-7" x="454.32" y="611.56" width="160" height="274.07"/><line class="cls-9" x1="454.32" y1="643.9" x2="614.32" y2="643.9"/><rect class="cls-12" x="464.82" y="660.23" width="43.17" height="6.67"/><rect class="cls-12" x="464.82" y="707.56" width="43.17" height="6.67"/><rect class="cls-13" x="464.82" y="620.06" width="14.5" height="14.5"/><rect class="cls-13" x="590.15" y="620.06" width="14.5" height="14.5"/><rect class="cls-12" x="512.73" y="623.98" width="43.17" height="6.67"/><rect class="cls-9" x="464.57" y="679.56" width="140.08" height="16.33"/><path class="cls-3" d="M584.86,728.08h-120v39h120a19.5,19.5,0,0,0,0-39Z"/><path class="cls-10" d="M584.86,777.12h-120v39h120a19.5,19.5,0,0,0,0-39Z"/><rect class="cls-12" x="479.36" y="745.92" width="43.17" height="6.67"/><rect class="cls-12" x="479.36" y="793.29" width="43.17" height="6.67"/><rect class="cls-7" x="454.32" y="980.58" width="160" height="274.07"/><rect class="cls-7" x="464.57" y="1025.69" width="140.08" height="33.21"/><line class="cls-7" x1="454.32" y1="1012.91" x2="614.32" y2="1012.91"/><rect class="cls-12" x="473.82" y="1039.24" width="43.17" height="6.67"/><rect class="cls-13" x="464.82" y="989.08" width="14.5" height="14.5"/><rect class="cls-13" x="590.15" y="989.08" width="14.5" height="14.5"/><rect class="cls-7" x="464.57" y="1072.65" width="140.08" height="33.21"/><rect class="cls-18" x="581.86" y="1035.05" width="14.5" height="14.5"/><rect class="cls-20" x="581.86" y="1082.28" width="14.5" height="14.5"/><rect class="cls-7" x="464.57" y="1120.31" width="140.08" height="33.21"/><rect class="cls-20" x="581.86" y="1129.94" width="14.5" height="14.5"/><rect class="cls-12" x="512.73" y="992.99" width="43.17" height="6.67"/><rect class="cls-20" x="473.82" y="1086.19" width="43.17" height="6.67"/><rect class="cls-20" x="473.82" y="1133.86" width="43.17" height="6.67"/><rect class="cls-7" x="647.44" y="611.56" width="160" height="274.07"/><line class="cls-9" x1="647.44" y1="643.9" x2="807.44" y2="643.9"/><rect class="cls-12" x="657.94" y="660.23" width="43.17" height="6.67"/><rect class="cls-12" x="665.94" y="684.39" width="43.17" height="6.67"/><rect class="cls-13" x="657.94" y="620.06" width="14.5" height="14.5"/><rect class="cls-13" x="783.28" y="620.06" width="14.5" height="14.5"/><rect class="cls-12" x="705.86" y="623.98" width="43.17" height="6.67"/><rect class="cls-9" x="657.69" y="679.56" width="140.09" height="16.33"/><rect class="cls-21" x="647.44" y="777.12" width="160" height="108.51"/><rect class="cls-4" x="657.94" y="785.67" width="139.84" height="16"/><rect class="cls-4" x="657.94" y="811.37" width="139.84" height="16"/><rect class="cls-4" x="657.94" y="837.37" width="139.84" height="16"/><rect class="cls-4" x="691.73" y="862.04" width="62.5" height="16"/><rect class="cls-4" x="657.94" y="862.04" width="26.29" height="16"/><rect class="cls-4" x="760.73" y="862.04" width="37.04" height="16"/><path class="cls-22" d="M165,395.49H131.15a4.7,4.7,0,0,1-4.7-4.7V350.15a4.7,4.7,0,0,1,4.7-4.7H165a4.71,4.71,0,0,1,4.7,4.7v40.64A4.71,4.71,0,0,1,165,395.49Zm-33.84-47.8a2.47,2.47,0,0,0-2.47,2.46v40.64a2.47,2.47,0,0,0,2.47,2.46H165a2.46,2.46,0,0,0,2.46-2.46V350.15a2.47,2.47,0,0,0-2.46-2.46Z"/><path class="cls-22" d="M134.56,401.25h-1.83a2.91,2.91,0,0,1-2.91-2.91v-4h2.23v4a.69.69,0,0,0,.68.67h1.83a.69.69,0,0,0,.68-.67v-4h2.23v4A2.91,2.91,0,0,1,134.56,401.25Z"/><path class="cls-22" d="M163.31,401.25h-1.84a2.92,2.92,0,0,1-2.91-2.91v-4h2.24v4a.68.68,0,0,0,.67.67h1.84a.68.68,0,0,0,.67-.67v-4h2.24v4A2.92,2.92,0,0,1,163.31,401.25Z"/><path class="cls-22" d="M136.1,387.91a3.63,3.63,0,1,1,3.63-3.63A3.63,3.63,0,0,1,136.1,387.91Zm0-4.87c-.93,0-1.24.31-1.24,1.24s.31,1.25,1.24,1.25,1.25-.31,1.25-1.25S137,383,136.1,383Z"/><path class="cls-22" d="M160,387.91a3.63,3.63,0,1,1,3.63-3.63A3.64,3.64,0,0,1,160,387.91Zm0-4.87c-.94,0-1.25.31-1.25,1.24s.31,1.25,1.25,1.25,1.25-.31,1.25-1.25S161,383,160,383Z"/><rect class="cls-22" x="138.63" y="383.16" width="18.86" height="2.24"/><rect class="cls-22" x="127.57" y="353.59" width="41" height="2.24"/><path class="cls-22" d="M149.2,352h-7.31a1.12,1.12,0,1,1,0-2.24h7.31a1.12,1.12,0,0,1,0,2.24Z"/><path class="cls-22" d="M154.25,352h-1.51a1.12,1.12,0,1,1,0-2.24h1.51a1.12,1.12,0,0,1,0,2.24Z"/><path d="M121.27,206.4c-.2-1.84-1.43-2.63-3.19-2.63-1.44,0-2.88.52-2.88,2.2s2,1.82,4.12,2.28,4.11,1.19,4.11,3.71c0,2.74-2.69,3.84-5,3.84-2.88,0-5.31-1.41-5.31-4.54h1.62c0,2.16,1.8,3.1,3.75,3.1,1.55,0,3.26-.49,3.26-2.34s-2.06-2.07-4.11-2.52-4.12-1.05-4.12-3.41c0-2.61,2.32-3.76,4.66-3.76,2.63,0,4.63,1.24,4.74,4.07Z"/><path d="M125.3,206.18h1.53v1.26h0a3.15,3.15,0,0,1,3-1.47c2.87,0,4.29,2.27,4.29,4.9s-1.41,4.84-4.25,4.84a3.58,3.58,0,0,1-3-1.46h0v4.81H125.3Zm4.32,1.14c-2.06,0-2.85,1.76-2.85,3.51s.83,3.53,2.94,3.53,2.79-1.78,2.79-3.6S131.6,207.32,129.62,207.32Z"/><path d="M136,202.64h1.53v12.85H136Z"/><path d="M148.16,215.46a2.08,2.08,0,0,1-1.1.25c-.79,0-1.3-.43-1.3-1.44a4.12,4.12,0,0,1-3.27,1.44c-1.7,0-3.08-.76-3.08-2.61,0-2.11,1.56-2.56,3.15-2.87s3.13-.21,3.13-1.36c0-1.34-1.1-1.55-2.07-1.55-1.3,0-2.25.39-2.32,1.76h-1.53c.09-2.3,1.87-3.11,3.94-3.11,1.67,0,3.49.38,3.49,2.55v4.79c0,.72,0,1.05.49,1.05a1.36,1.36,0,0,0,.47-.09Zm-2.49-4.78a7.85,7.85,0,0,1-2.77.64c-1,.18-1.87.54-1.87,1.67s.86,1.37,1.8,1.37c2,0,2.84-1.26,2.84-2.11Z"/><path d="M150.51,212.56c.06,1.37,1.25,1.8,2.51,1.8.95,0,2.25-.22,2.25-1.39s-1.52-1.39-3.05-1.73-3-.84-3-2.63S151,206,152.66,206c2.05,0,3.69.65,3.81,2.91h-1.53c-.11-1.18-1.15-1.56-2.16-1.56s-2,.25-2,1.19c0,1.09,1.62,1.27,3,1.62s3,.84,3,2.64c0,2.22-2.07,2.94-4,2.94-2.09,0-3.86-.85-4-3.15Z"/><path d="M158.58,202.64h1.53v4.91h0a3.17,3.17,0,0,1,2.94-1.58c2.45,0,3.2,1.4,3.2,3.4v6.12h-1.53v-6.3a1.75,1.75,0,0,0-1.89-1.87,2.61,2.61,0,0,0-2.75,2.91v5.26h-1.53Z"/><path d="M174.58,211.58a8.82,8.82,0,0,1-1.65-4.92,8.29,8.29,0,0,1,1.65-4.84h.68a8.67,8.67,0,0,0-1.38,4.84,8.84,8.84,0,0,0,1.38,4.92Z"/><path d="M178.07,202.05c2.33,0,2.48,2.15,2.48,3.79s-.15,3.78-2.48,3.78-2.48-2.14-2.48-3.78S175.74,202.05,178.07,202.05Zm0,6.79c1.52,0,1.54-1.89,1.54-3s0-3-1.54-3-1.53,1.89-1.53,3S176.55,208.84,178.07,208.84Z"/><path d="M180.88,211.58a8.68,8.68,0,0,0,1.39-4.84,8.85,8.85,0,0,0-1.39-4.92h.69a8.89,8.89,0,0,1,1.64,4.92,8.28,8.28,0,0,1-1.64,4.84Z"/><path d="M310.54,202.64h1.71v5.52H319v-5.52h1.71v12.85H319V209.6h-6.77v5.89h-1.71Z"/><path d="M327.29,206c3,0,4.52,2.14,4.52,4.88s-1.56,4.86-4.52,4.86-4.51-2.14-4.51-4.86S324.34,206,327.29,206Zm0,8.39c1.61,0,2.9-1.26,2.9-3.51s-1.29-3.53-2.9-3.53-2.89,1.26-2.89,3.53S325.69,214.36,327.29,214.36Z"/><path d="M333.61,206.18h1.44v1.37h0a3.43,3.43,0,0,1,3-1.58,2.47,2.47,0,0,1,2.56,1.58,3.44,3.44,0,0,1,2.92-1.58c1.85,0,3.09.77,3.09,2.7v6.82h-1.53v-6.1c0-1.15-.3-2.07-1.8-2.07a2.25,2.25,0,0,0-2.43,2.37v5.8h-1.53v-6.1c0-1.21-.38-2.07-1.74-2.07a2.51,2.51,0,0,0-2.49,2.37v5.8h-1.53Z"/><path d="M356.91,212.54a3.77,3.77,0,0,1-4,3.17c-3,0-4.38-2.05-4.47-4.9s1.84-4.84,4.38-4.84c3.29,0,4.3,3.08,4.21,5.33h-7a2.75,2.75,0,0,0,2.9,3.06,2.24,2.24,0,0,0,2.41-1.82ZM355.43,210a2.68,2.68,0,0,0-2.68-2.63,2.65,2.65,0,0,0-2.67,2.63Z"/><path d="M364.62,211.58a8.89,8.89,0,0,1-1.64-4.92,8.28,8.28,0,0,1,1.64-4.84h.69a8.68,8.68,0,0,0-1.39,4.84,8.85,8.85,0,0,0,1.39,4.92Z"/><path d="M368.12,202.05c2.33,0,2.48,2.15,2.48,3.79s-.15,3.78-2.48,3.78-2.48-2.14-2.48-3.78S365.79,202.05,368.12,202.05Zm0,6.79c1.52,0,1.53-1.89,1.53-3s0-3-1.53-3-1.53,1.89-1.53,3S366.6,208.84,368.12,208.84Z"/><path d="M370.93,211.58a8.68,8.68,0,0,0,1.39-4.84,8.85,8.85,0,0,0-1.39-4.92h.68a8.82,8.82,0,0,1,1.65,4.92,8.29,8.29,0,0,1-1.65,4.84Z"/><path d="M470,202.64h1.71v5.52h6.77v-5.52h1.71v12.85h-1.71V209.6H471.7v5.89H470Z"/><path d="M486.75,206c2.95,0,4.52,2.14,4.52,4.88s-1.57,4.86-4.52,4.86-4.52-2.14-4.52-4.86S483.8,206,486.75,206Zm0,8.39c1.6,0,2.9-1.26,2.9-3.51s-1.3-3.53-2.9-3.53-2.9,1.26-2.9,3.53S485.15,214.36,486.75,214.36Z"/><path d="M493.07,206.18h1.44v1.37h0a3.45,3.45,0,0,1,3-1.58,2.48,2.48,0,0,1,2.56,1.58A3.43,3.43,0,0,1,503,206c1.86,0,3.1.77,3.1,2.7v6.82h-1.53v-6.1c0-1.15-.31-2.07-1.8-2.07a2.25,2.25,0,0,0-2.43,2.37v5.8h-1.53v-6.1c0-1.21-.38-2.07-1.75-2.07a2.5,2.5,0,0,0-2.48,2.37v5.8h-1.53Z"/><path d="M516.36,212.54a3.75,3.75,0,0,1-4,3.17c-3,0-4.37-2.05-4.46-4.9s1.83-4.84,4.37-4.84c3.3,0,4.31,3.08,4.21,5.33h-7a2.74,2.74,0,0,0,2.9,3.06,2.24,2.24,0,0,0,2.41-1.82ZM514.88,210a2.68,2.68,0,0,0-2.68-2.63,2.65,2.65,0,0,0-2.66,2.63Z"/><path d="M517.83,209.77H523v1.44h-5.21Z"/><path d="M528.83,202.64h1.89l5,12.85h-1.89l-1.41-3.87H527l-1.44,3.87h-1.77Zm-1.27,7.54h4.35l-2.14-6h0Z"/><path d="M544.78,214.7c0,3-1.38,4.57-4.32,4.57-1.75,0-3.76-.7-3.85-2.73h1.53c.07,1.11,1.4,1.51,2.41,1.51,2,0,2.79-1.44,2.79-3.53v-.61h0a3.12,3.12,0,0,1-2.9,1.69c-2.78,0-4.16-2.18-4.16-4.72,0-2.19,1.08-4.91,4.3-4.91a3,3,0,0,1,2.77,1.55h0v-1.34h1.44Zm-1.51-4c0-1.64-.72-3.33-2.65-3.33s-2.75,1.6-2.75,3.38.61,3.55,2.63,3.55S543.27,212.4,543.27,210.65Z"/><path d="M555,212.54a3.75,3.75,0,0,1-4,3.17c-3,0-4.37-2.05-4.46-4.9S548.42,206,551,206c3.29,0,4.3,3.08,4.21,5.33h-7a2.74,2.74,0,0,0,2.9,3.06,2.24,2.24,0,0,0,2.41-1.82ZM553.55,210a2.68,2.68,0,0,0-2.68-2.63A2.65,2.65,0,0,0,548.2,210Z"/><path d="M556.75,206.18h1.44v1.48h0a3.24,3.24,0,0,1,3-1.69c2.45,0,3.21,1.4,3.21,3.4v6.12h-1.53v-6.3a1.75,1.75,0,0,0-1.89-1.87,2.61,2.61,0,0,0-2.76,2.91v5.26h-1.53Z"/><path d="M573.08,209.17a2.17,2.17,0,0,0-2.31-1.85c-2.21,0-2.9,1.74-2.9,3.64,0,1.7.78,3.4,2.72,3.4a2.41,2.41,0,0,0,2.56-2.27h1.57a3.88,3.88,0,0,1-4.11,3.62c-2.84,0-4.36-2-4.36-4.75s1.44-5,4.4-5c2.1,0,3.8,1,4,3.2Z"/><path d="M580.08,216.73c-.7,1.82-1.33,2.49-2.7,2.49a3.17,3.17,0,0,1-1.06-.16v-1.41a3,3,0,0,0,.9.22,1.33,1.33,0,0,0,1.26-.85l.63-1.58-3.69-9.26h1.72l2.72,7.62h0l2.61-7.62h1.62Z"/><path d="M591.42,211.58a8.82,8.82,0,0,1-1.65-4.92,8.29,8.29,0,0,1,1.65-4.84h.68a8.68,8.68,0,0,0-1.39,4.84,8.85,8.85,0,0,0,1.39,4.92Z"/><path d="M595.73,209.5h-.89v-5.34h-1.93v-.71c1,0,1.94-.27,2.14-1.4h.68Z"/><path d="M597.72,211.58a8.68,8.68,0,0,0,1.39-4.84,8.85,8.85,0,0,0-1.39-4.92h.69a8.89,8.89,0,0,1,1.64,4.92,8.28,8.28,0,0,1-1.64,4.84Z"/><path d="M698.29,202.64h4.41c4,0,6.18,2,6.18,6.12,0,4.3-1.89,6.73-6.18,6.73h-4.41ZM700,214.05h2.85c1.17,0,4.32-.32,4.32-5.06,0-3.06-1.14-4.91-4.29-4.91H700Z"/><path d="M718.65,212.54a3.75,3.75,0,0,1-4,3.17c-3,0-4.37-2.05-4.46-4.9S712,206,714.58,206c3.3,0,4.31,3.08,4.22,5.33h-7a2.74,2.74,0,0,0,2.9,3.06,2.24,2.24,0,0,0,2.41-1.82ZM717.18,210a2.69,2.69,0,0,0-2.69-2.63,2.65,2.65,0,0,0-2.66,2.63Z"/><path d="M722.5,206.18h1.86v1.35H722.5v5.78c0,.71.2.83,1.16.83h.7v1.35h-1.17c-1.59,0-2.22-.32-2.22-2v-5.93h-1.58v-1.35H721v-2.79h1.53Z"/><path d="M734.29,215.46a2.07,2.07,0,0,1-1.09.25c-.8,0-1.3-.43-1.3-1.44a4.14,4.14,0,0,1-3.28,1.44c-1.69,0-3.08-.76-3.08-2.61,0-2.11,1.57-2.56,3.15-2.87s3.14-.21,3.14-1.36c0-1.34-1.1-1.55-2.07-1.55-1.3,0-2.25.39-2.33,1.76H725.9c.09-2.3,1.88-3.11,4-3.11,1.67,0,3.49.38,3.49,2.55v4.79c0,.72,0,1.05.49,1.05a1.31,1.31,0,0,0,.46-.09Zm-2.48-4.78a7.91,7.91,0,0,1-2.77.64c-1,.18-1.88.54-1.88,1.67s.87,1.37,1.8,1.37c2,0,2.85-1.26,2.85-2.11Z"/><path d="M737.33,204.51H735.8v-1.87h1.53Zm-1.53,1.67h1.53v9.31H735.8Z"/><path d="M739.8,202.64h1.53v12.85H739.8Z"/><path d="M749.7,211.58a8.82,8.82,0,0,1-1.65-4.92,8.29,8.29,0,0,1,1.65-4.84h.68a8.67,8.67,0,0,0-1.38,4.84,8.84,8.84,0,0,0,1.38,4.92Z"/><path d="M750.74,204.69a2.31,2.31,0,0,1,2.39-2.64,2.12,2.12,0,0,1,2.33,2.15,3,3,0,0,1-1.8,2.55c-.94.56-1.92,1-2.09,2h3.82v.79h-4.86a3.53,3.53,0,0,1,2.09-3.05c1.26-.77,1.9-1.24,1.9-2.26a1.37,1.37,0,0,0-1.44-1.35c-1,0-1.48,1-1.45,1.85Z"/><path d="M756,211.58a8.68,8.68,0,0,0,1.39-4.84,8.85,8.85,0,0,0-1.39-4.92h.69a8.89,8.89,0,0,1,1.64,4.92,8.28,8.28,0,0,1-1.64,4.84Z"/><path d="M887,202.64h4.41c4,0,6.17,2,6.17,6.12,0,4.3-1.89,6.73-6.17,6.73H887Zm1.71,11.41h2.84c1.17,0,4.32-.32,4.32-5.06,0-3.06-1.13-4.91-4.28-4.91h-2.88Z"/><path d="M907.39,212.54a3.76,3.76,0,0,1-4,3.17c-3,0-4.38-2.05-4.47-4.9s1.84-4.84,4.38-4.84c3.29,0,4.3,3.08,4.21,5.33h-7a2.75,2.75,0,0,0,2.9,3.06,2.24,2.24,0,0,0,2.41-1.82ZM905.91,210a2.68,2.68,0,0,0-2.68-2.63,2.65,2.65,0,0,0-2.67,2.63Z"/><path d="M911.24,206.18h1.85v1.35h-1.85v5.78c0,.71.19.83,1.15.83h.7v1.35h-1.17c-1.58,0-2.21-.32-2.21-2v-5.93h-1.59v-1.35h1.59v-2.79h1.53Z"/><path d="M923,215.46a2.08,2.08,0,0,1-1.1.25c-.79,0-1.3-.43-1.3-1.44a4.12,4.12,0,0,1-3.27,1.44c-1.7,0-3.08-.76-3.08-2.61,0-2.11,1.56-2.56,3.15-2.87s3.13-.21,3.13-1.36c0-1.34-1.1-1.55-2.07-1.55-1.3,0-2.25.39-2.32,1.76h-1.53c.09-2.3,1.87-3.11,3.94-3.11,1.67,0,3.49.38,3.49,2.55v4.79c0,.72,0,1.05.49,1.05a1.36,1.36,0,0,0,.47-.09Zm-2.49-4.78a7.85,7.85,0,0,1-2.77.64c-1,.18-1.87.54-1.87,1.67s.86,1.37,1.8,1.37c2,0,2.84-1.26,2.84-2.11Z"/><path d="M926.07,204.51h-1.53v-1.87h1.53Zm-1.53,1.67h1.53v9.31h-1.53Z"/><path d="M928.53,202.64h1.53v12.85h-1.53Z"/><path d="M937.08,207.25c-.12-2.6,1.41-4.52,4.11-4.52,2.23,0,4,1.29,4,3.67s-1.51,3.38-3.09,4.37-3.28,1.79-3.59,3.37h6.56v1.35h-8.34c.25-3,1.78-4.1,3.59-5.22,2.16-1.33,3.25-2.12,3.25-3.89a2.32,2.32,0,0,0-2.46-2.3c-1.78,0-2.54,1.63-2.49,3.17Z"/><path d="M953.44,211.58a8.9,8.9,0,0,1-1.65-4.92,8.29,8.29,0,0,1,1.65-4.84h.69a8.68,8.68,0,0,0-1.39,4.84,8.85,8.85,0,0,0,1.39,4.92Z"/><path d="M954.48,204.69a2.32,2.32,0,0,1,2.4-2.64,2.12,2.12,0,0,1,2.33,2.15,3,3,0,0,1-1.81,2.55c-.93.56-1.91,1-2.09,2h3.82v.79h-4.86a3.55,3.55,0,0,1,2.09-3.05c1.26-.77,1.9-1.24,1.9-2.26a1.36,1.36,0,0,0-1.44-1.35c-1,0-1.48,1-1.45,1.85Z"/><path d="M960.73,208.33h1.16v1.17h-1.16Z"/><path d="M967.71,203h-3l-.4,2.14,0,0a1.85,1.85,0,0,1,1.38-.53,2.32,2.32,0,0,1,2.41,2.55,2.43,2.43,0,0,1-2.61,2.47,2.18,2.18,0,0,1-2.37-2.13H964a1.47,1.47,0,0,0,1.57,1.35,1.57,1.57,0,0,0,1.57-1.77,1.61,1.61,0,0,0-1.68-1.69,1.8,1.8,0,0,0-1.39.71l-.76-.05.69-3.86h3.68Z"/><path d="M968.5,211.58a8.68,8.68,0,0,0,1.39-4.84,8.85,8.85,0,0,0-1.39-4.92h.68a8.82,8.82,0,0,1,1.65,4.92,8.29,8.29,0,0,1-1.65,4.84Z"/><path d="M501.46,578.48c-.19-1.84-1.42-2.63-3.18-2.63-1.44,0-2.88.52-2.88,2.19s2.05,1.82,4.12,2.29,4.11,1.19,4.11,3.71c0,2.74-2.69,3.83-5,3.83-2.88,0-5.31-1.4-5.31-4.53h1.62c0,2.16,1.8,3.09,3.75,3.09,1.54,0,3.26-.48,3.26-2.34s-2.06-2.07-4.11-2.52-4.12-1-4.12-3.4c0-2.61,2.32-3.76,4.66-3.76,2.63,0,4.63,1.24,4.73,4.07Z"/><path d="M513.38,584.62a3.75,3.75,0,0,1-4,3.17c-3,0-4.37-2.06-4.46-4.9s1.83-4.85,4.37-4.85c3.3,0,4.31,3.08,4.21,5.33h-7a2.74,2.74,0,0,0,2.9,3.06,2.24,2.24,0,0,0,2.41-1.81ZM511.9,582a2.68,2.68,0,0,0-2.68-2.63,2.65,2.65,0,0,0-2.66,2.63Z"/><path d="M523.35,587.53a2,2,0,0,1-1.1.26c-.79,0-1.29-.44-1.29-1.45a4.15,4.15,0,0,1-3.28,1.45c-1.69,0-3.08-.76-3.08-2.62,0-2.1,1.57-2.55,3.15-2.86s3.14-.21,3.14-1.37c0-1.33-1.1-1.55-2.07-1.55-1.3,0-2.26.4-2.33,1.77H515c.09-2.31,1.87-3.12,3.95-3.12,1.67,0,3.49.38,3.49,2.56v4.79c0,.72,0,1,.48,1a1.13,1.13,0,0,0,.47-.09Zm-2.48-4.77a8,8,0,0,1-2.77.63c-1,.18-1.88.54-1.88,1.68s.87,1.36,1.8,1.36c2,0,2.85-1.26,2.85-2.1Z"/><path d="M524.72,578.26h1.44v2h0a3.41,3.41,0,0,1,3.43-2.18v1.62c-2.47,0-3.37,1.41-3.37,3.77v4.14h-1.53Z"/><path d="M536.76,581.25a2.16,2.16,0,0,0-2.3-1.86c-2.22,0-2.9,1.75-2.9,3.64,0,1.71.77,3.4,2.72,3.4a2.4,2.4,0,0,0,2.55-2.26h1.57a3.87,3.87,0,0,1-4.11,3.62c-2.84,0-4.35-2-4.35-4.76s1.44-5,4.39-5c2.11,0,3.8,1,4,3.21Z"/><path d="M540.11,574.71h1.53v4.92h0a3.16,3.16,0,0,1,2.94-1.59c2.45,0,3.2,1.41,3.2,3.41v6.12h-1.53v-6.3a1.76,1.76,0,0,0-1.89-1.88,2.62,2.62,0,0,0-2.75,2.92v5.26h-1.53Z"/><path d="M556.11,583.65a8.77,8.77,0,0,1-1.65-4.91,8.27,8.27,0,0,1,1.65-4.84h.68a8.67,8.67,0,0,0-1.38,4.84,8.81,8.81,0,0,0,1.38,4.91Z"/><path d="M557.15,576.77a2.31,2.31,0,0,1,2.39-2.64,2.12,2.12,0,0,1,2.33,2.14,3,3,0,0,1-1.8,2.55c-.94.57-1.91,1-2.09,2h3.82v.79h-4.86a3.53,3.53,0,0,1,2.09-3.05c1.26-.78,1.9-1.24,1.9-2.27a1.36,1.36,0,0,0-1.44-1.34c-1,0-1.48,1-1.45,1.85Z"/><path d="M564.65,578.72l-1.89-2.57h1.15l1.3,1.9,1.35-1.9h1.07l-1.87,2.5,2.1,2.93h-1.14l-1.51-2.25-1.51,2.25h-1.09Z"/><path d="M572.35,579h1v.79h-1v1.75h-.84v-1.75h-3.26V579l3.39-4.84h.71Zm-.84,0V575.4h0L569,579Z"/><path d="M573.68,583.65a8.66,8.66,0,0,0,1.39-4.84,8.84,8.84,0,0,0-1.39-4.91h.69a8.82,8.82,0,0,1,1.65,4.91,8.24,8.24,0,0,1-1.65,4.84Z"/><path d="M503.49,946h1.89l5,12.86h-1.89l-1.4-3.87h-5.44l-1.44,3.87h-1.76Zm-1.28,7.55h4.36l-2.14-6h0Z"/><path d="M511.5,946H513v12.86H511.5Z"/><path d="M523.65,958.77a2.08,2.08,0,0,1-1.1.25c-.79,0-1.29-.43-1.29-1.44A4.14,4.14,0,0,1,518,959c-1.69,0-3.08-.75-3.08-2.61,0-2.1,1.57-2.55,3.15-2.86s3.13-.22,3.13-1.37c0-1.33-1.09-1.55-2.07-1.55-1.29,0-2.25.4-2.32,1.77h-1.53c.09-2.31,1.87-3.12,3.94-3.12,1.68,0,3.5.38,3.5,2.56v4.79c0,.72,0,1,.48,1a1.16,1.16,0,0,0,.47-.09ZM521.17,954a8,8,0,0,1-2.78.63c-1,.18-1.87.54-1.87,1.68s.86,1.36,1.8,1.36c2,0,2.85-1.26,2.85-2.1Z"/><path d="M525,949.5h1.44v2h0a3.4,3.4,0,0,1,3.42-2.18v1.62c-2.46,0-3.36,1.41-3.36,3.77v4.14H525Z"/><path d="M531.06,949.5h1.44v1.37h0a3.43,3.43,0,0,1,3-1.59,2.45,2.45,0,0,1,2.55,1.59,3.45,3.45,0,0,1,2.92-1.59c1.86,0,3.1.78,3.1,2.7v6.83h-1.53v-6.1c0-1.16-.31-2.08-1.8-2.08a2.26,2.26,0,0,0-2.43,2.38v5.8h-1.53v-6.1c0-1.21-.38-2.08-1.75-2.08a2.52,2.52,0,0,0-2.49,2.38v5.8h-1.53Z"/><path d="M547.35,955.87c.06,1.37,1.25,1.8,2.51,1.8.95,0,2.25-.21,2.25-1.38s-1.52-1.39-3.05-1.73-3-.85-3-2.63,1.86-2.65,3.48-2.65c2,0,3.69.65,3.81,2.92h-1.53c-.1-1.19-1.15-1.57-2.16-1.57s-2,.26-2,1.19c0,1.1,1.62,1.28,3.05,1.62s3,.85,3,2.65c0,2.21-2.07,2.93-4,2.93-2.09,0-3.86-.84-3.95-3.15Z"/><path d="M561.41,954.89a8.77,8.77,0,0,1-1.65-4.91,8.27,8.27,0,0,1,1.65-4.84h.68a8.73,8.73,0,0,0-1.38,4.84,8.89,8.89,0,0,0,1.38,4.91Z"/><path d="M562.45,948a2.31,2.31,0,0,1,2.39-2.64,2.12,2.12,0,0,1,2.33,2.14,3,3,0,0,1-1.8,2.55c-.94.57-1.91,1-2.09,2h3.82v.78h-4.86a3.55,3.55,0,0,1,2.09-3c1.26-.78,1.9-1.24,1.9-2.27a1.35,1.35,0,0,0-1.44-1.34c-1,0-1.48,1-1.45,1.85Z"/><path d="M567.72,954.89a8.73,8.73,0,0,0,1.38-4.84,8.91,8.91,0,0,0-1.38-4.91h.68a8.79,8.79,0,0,1,1.65,4.91,8.24,8.24,0,0,1-1.65,4.84Z"/><path d="M673.06,578.48c-.19-1.84-1.42-2.63-3.18-2.63-1.44,0-2.88.52-2.88,2.19s2,1.82,4.12,2.29,4.1,1.19,4.1,3.71c0,2.74-2.68,3.83-5,3.83-2.88,0-5.31-1.4-5.31-4.53h1.62c0,2.16,1.8,3.09,3.75,3.09,1.54,0,3.25-.48,3.25-2.34s-2-2.07-4.1-2.52-4.12-1-4.12-3.4c0-2.61,2.32-3.76,4.66-3.76,2.63,0,4.63,1.24,4.73,4.07Z"/><path d="M685,584.62a3.75,3.75,0,0,1-4,3.17c-3,0-4.37-2.06-4.46-4.9s1.83-4.85,4.37-4.85c3.3,0,4.3,3.08,4.21,5.33h-7a2.74,2.74,0,0,0,2.9,3.06,2.24,2.24,0,0,0,2.41-1.81ZM683.5,582a2.68,2.68,0,0,0-2.68-2.63,2.65,2.65,0,0,0-2.66,2.63Z"/><path d="M695,587.53a2,2,0,0,1-1.1.26c-.79,0-1.29-.44-1.29-1.45a4.15,4.15,0,0,1-3.28,1.45c-1.69,0-3.08-.76-3.08-2.62,0-2.1,1.57-2.55,3.15-2.86s3.14-.21,3.14-1.37c0-1.33-1.1-1.55-2.07-1.55-1.3,0-2.26.4-2.33,1.77h-1.53c.09-2.31,1.87-3.12,3.94-3.12,1.68,0,3.5.38,3.5,2.56v4.79c0,.72,0,1,.48,1a1.16,1.16,0,0,0,.47-.09Zm-2.48-4.77a8,8,0,0,1-2.77.63c-1,.18-1.88.54-1.88,1.68s.87,1.36,1.8,1.36c2,0,2.85-1.26,2.85-2.1Z"/><path d="M696.32,578.26h1.44v2h0a3.4,3.4,0,0,1,3.42-2.18v1.62c-2.46,0-3.36,1.41-3.36,3.77v4.14h-1.53Z"/><path d="M708.36,581.25a2.16,2.16,0,0,0-2.3-1.86c-2.22,0-2.9,1.75-2.9,3.64,0,1.71.77,3.4,2.72,3.4a2.4,2.4,0,0,0,2.55-2.26H710a3.87,3.87,0,0,1-4.11,3.62c-2.84,0-4.35-2-4.35-4.76s1.44-5,4.39-5c2.11,0,3.8,1,4,3.21Z"/><path d="M711.71,574.71h1.53v4.92h0a3.16,3.16,0,0,1,2.94-1.59c2.45,0,3.2,1.41,3.2,3.41v6.12h-1.53v-6.3a1.76,1.76,0,0,0-1.89-1.88,2.62,2.62,0,0,0-2.75,2.92v5.26h-1.53Z"/><path d="M726.47,581.84h5.2v1.44h-5.2Z"/><path d="M739.05,574.71h1.71v12.86h-1.71Z"/><path d="M743.39,578.26h1.44v1.48h0a3.24,3.24,0,0,1,3-1.7c2.45,0,3.2,1.41,3.2,3.41v6.12h-1.53v-6.3a1.76,1.76,0,0,0-1.89-1.88,2.62,2.62,0,0,0-2.75,2.92v5.26h-1.53Z"/><path d="M753.45,578.26H755v1.26h0a3.15,3.15,0,0,1,3-1.48c2.86,0,4.28,2.27,4.28,4.9s-1.4,4.85-4.25,4.85a3.58,3.58,0,0,1-3-1.46h0v4.8h-1.53Zm4.32,1.13c-2,0-2.85,1.77-2.85,3.52s.83,3.52,2.94,3.52,2.79-1.78,2.79-3.6S759.75,579.39,757.77,579.39Z"/><path d="M771.77,587.57h-1.44v-1.48h0a3.23,3.23,0,0,1-3,1.7c-2.45,0-3.2-1.41-3.2-3.41v-6.12h1.53v6.3a1.75,1.75,0,0,0,1.89,1.87,2.61,2.61,0,0,0,2.75-2.91v-5.26h1.53Z"/><path d="M776.2,578.26h1.86v1.35H776.2v5.78c0,.7.2.83,1.15.83h.71v1.35h-1.18c-1.58,0-2.21-.32-2.21-2v-5.93h-1.58v-1.35h1.58v-2.79h1.53Z"/><path d="M785.74,583.65a8.77,8.77,0,0,1-1.65-4.91,8.27,8.27,0,0,1,1.65-4.84h.68a8.67,8.67,0,0,0-1.38,4.84,8.81,8.81,0,0,0,1.38,4.91Z"/><path d="M788.6,577.32H789a1.26,1.26,0,0,0,1.42-1.21,1.18,1.18,0,0,0-1.32-1.2c-1,0-1.4.74-1.41,1.62h-.89a2.21,2.21,0,0,1,2.3-2.41c1.29,0,2.26.62,2.26,2a1.72,1.72,0,0,1-1,1.48v0a1.69,1.69,0,0,1,1.34,1.8,2.3,2.3,0,0,1-2.56,2.27,2.25,2.25,0,0,1-2.48-2.42h.89a1.51,1.51,0,0,0,1.59,1.63,1.47,1.47,0,0,0,1.61-1.43,1.42,1.42,0,0,0-1.58-1.43,4.75,4.75,0,0,0-.54,0Z"/><path d="M794.28,578.72l-1.89-2.57h1.15l1.3,1.9,1.35-1.9h1.07l-1.87,2.5,2.1,2.93h-1.14l-1.51-2.25-1.51,2.25h-1.08Z"/><path d="M802,579h1v.79h-1v1.75h-.84v-1.75h-3.26V579l3.39-4.84H802Zm-.84,0V575.4h0L798.65,579Z"/><path d="M803.32,583.65a8.73,8.73,0,0,0,1.38-4.84,8.91,8.91,0,0,0-1.38-4.91H804a8.82,8.82,0,0,1,1.65,4.91,8.24,8.24,0,0,1-1.65,4.84Z"/><path d="M309.14,578.48c-.2-1.84-1.42-2.63-3.18-2.63-1.45,0-2.89.52-2.89,2.19s2.06,1.82,4.13,2.29,4.1,1.19,4.1,3.71c0,2.74-2.68,3.83-5,3.83-2.88,0-5.31-1.4-5.31-4.53h1.62c0,2.16,1.8,3.09,3.74,3.09,1.55,0,3.26-.48,3.26-2.34s-2-2.07-4.1-2.52-4.13-1-4.13-3.4c0-2.61,2.33-3.76,4.67-3.76,2.63,0,4.63,1.24,4.73,4.07Z"/><path d="M321.06,584.62a3.76,3.76,0,0,1-4,3.17c-3,0-4.38-2.06-4.47-4.9S314.45,578,317,578c3.29,0,4.3,3.08,4.21,5.33h-7a2.75,2.75,0,0,0,2.9,3.06,2.25,2.25,0,0,0,2.42-1.81Zm-1.48-2.6a2.68,2.68,0,0,0-5.35,0Z"/><path d="M324.91,578.26h1.85v1.35h-1.85v5.78c0,.7.2.83,1.15.83h.7v1.35h-1.17c-1.58,0-2.21-.33-2.21-2v-5.93h-1.59v-1.35h1.59v-2.79h1.53Z"/><path d="M330.58,578.26h1.85v1.35h-1.85v5.78c0,.7.2.83,1.15.83h.7v1.35h-1.17c-1.58,0-2.21-.33-2.21-2v-5.93h-1.59v-1.35h1.59v-2.79h1.53Z"/><path d="M335.74,576.59h-1.53v-1.88h1.53Zm-1.53,1.67h1.53v9.31h-1.53Z"/><path d="M338.12,578.26h1.44v1.48h0a3.22,3.22,0,0,1,3-1.7c2.45,0,3.21,1.41,3.21,3.41v6.12h-1.54v-6.3a1.75,1.75,0,0,0-1.89-1.88,2.62,2.62,0,0,0-2.75,2.92v5.26h-1.53Z"/><path d="M356.16,586.78c0,3-1.39,4.57-4.32,4.57-1.75,0-3.77-.7-3.86-2.74h1.53c.07,1.12,1.41,1.51,2.42,1.51,2,0,2.79-1.43,2.79-3.52V586h0a3.1,3.1,0,0,1-2.9,1.7c-2.77,0-4.16-2.18-4.16-4.72,0-2.2,1.08-4.92,4.31-4.92a3,3,0,0,1,2.77,1.55h0v-1.33h1.44Zm-1.52-4.06c0-1.63-.72-3.33-2.64-3.33s-2.76,1.61-2.76,3.39.62,3.55,2.63,3.55S354.64,584.47,354.64,582.72Z"/><path d="M359.4,584.63c.05,1.37,1.24,1.8,2.5,1.8,1,0,2.25-.21,2.25-1.38s-1.51-1.39-3-1.73-3.05-.85-3.05-2.63,1.86-2.65,3.48-2.65c2,0,3.69.65,3.82,2.92h-1.54c-.1-1.19-1.15-1.57-2.16-1.57s-2,.26-2,1.19c0,1.1,1.62,1.28,3.05,1.62s3,.85,3,2.65c0,2.21-2.07,2.94-4,2.94-2.09,0-3.85-.85-3.94-3.16Z"/><path d="M373.45,583.65a8.77,8.77,0,0,1-1.65-4.91,8.27,8.27,0,0,1,1.65-4.84h.68a8.73,8.73,0,0,0-1.38,4.84,8.89,8.89,0,0,0,1.38,4.91Z"/><path d="M377.77,581.57h-.9v-5.33h-1.93v-.71c1,0,1.94-.27,2.14-1.4h.69Z"/><path d="M379.76,583.65a8.65,8.65,0,0,0,1.38-4.84,8.83,8.83,0,0,0-1.38-4.91h.68a8.79,8.79,0,0,1,1.65,4.91,8.24,8.24,0,0,1-1.65,4.84Z"/></g></svg>