<svg xmlns="http://www.w3.org/2000/svg" xmlns:xlink="http://www.w3.org/1999/xlink" viewBox="0 0 1065 1153.18"><defs><style>.cls-1,.cls-13{fill:none;}.cls-2{fill:#f5f5f5;}.cls-3{font-size:86.78px;font-family:HelveticaNeueLTStd-Bd, Helvetica Neue LT Std;}.cls-22,.cls-3{fill:#fff;}.cls-4{letter-spacing:-0.02em;}.cls-5{font-size:49.39px;fill:#282828;font-family:HelveticaNeueLTStd-Lt, Helvetica Neue LT Std;}.cls-6{letter-spacing:-0.01em;}.cls-7{letter-spacing:-0.02em;}.cls-8{letter-spacing:-0.02em;}.cls-9{letter-spacing:-0.02em;}.cls-10{letter-spacing:-0.02em;}.cls-11{letter-spacing:-0.01em;}.cls-12{letter-spacing:-0.01em;}.cls-13,.cls-21{stroke:#5f6263;stroke-miterlimit:10;}.cls-14{font-size:14px;}.cls-14,.cls-15,.cls-17,.cls-18,.cls-22,.cls-23,.cls-27{font-family:HelveticaNeueLTStd-Roman, Helvetica Neue LT Std;}.cls-15,.cls-27{font-size:10px;}.cls-16{letter-spacing:-0.09em;}.cls-17{font-size:7px;}.cls-18{font-size:16.36px;}.cls-19,.cls-21,.cls-27{fill:#5f6263;}.cls-20{fill:#e6e6e5;}.cls-22,.cls-23{font-size:9px;}.cls-24{clip-path:url(#clip-path);}.cls-25{letter-spacing:0em;}.cls-26{letter-spacing:-0.02em;}</style><clipPath id="clip-path"><rect class="cls-1" x="336.77" y="210.46" width="213.5" height="381.49"/></clipPath></defs><title>NextbusRedesign</title><g id="Layer_8" data-name="Layer 8"><rect class="cls-2" x="-16.12" y="-1474.51" width="1092.92" height="1476.93"/><rect class="cls-2" x="-16.12" y="-289.94" width="1092.92" height="1532.97"/><text class="cls-3" transform="translate(912.08 129.39) rotate(90)"><tspan class="cls-4">r</tspan><tspan x="32.2" y="0">ound 1 </tspan></text><text class="cls-5" transform="translate(912.08 505.26) rotate(90)"><tspan class="cls-6">W</tspan><tspan class="cls-7" x="44.43" y="0">i</tspan><tspan class="cls-8" x="52.83" y="0">r</tspan><tspan class="cls-9" x="67.26" y="0">e</tspan><tspan class="cls-6" x="91.93" y="0">f</tspan><tspan class="cls-10" x="104.36" y="0">r</tspan><tspan class="cls-11" x="119.1" y="0">a</tspan><tspan class="cls-12" x="144.3" y="0">m</tspan><tspan x="184.89" y="0">e</tspan></text><rect class="cls-13" x="336.77" y="210.46" width="213.5" height="381.49"/><rect class="cls-13" x="336.77" y="210.46" width="213.5" height="34.41"/><text class="cls-14" transform="translate(424.72 232.15)">Home</text><text class="cls-15" transform="translate(344.38 279.74)">Nearby <tspan class="cls-16" x="35" y="0">T</tspan><tspan x="39.82" y="0">ransit</tspan></text><text class="cls-15" transform="translate(393.2 353.67)">Line<tspan x="0" y="9">Number</tspan></text><text class="cls-17" transform="translate(393.2 372.33)">Line Description</text><text class="cls-15" transform="translate(393.2 411.23)">Line<tspan x="0" y="9">Number</tspan></text><text class="cls-17" transform="translate(393.2 429.9)">Line Description</text><text class="cls-18" transform="translate(483.82 370.97)">#, #, #</text><text class="cls-18" transform="translate(483.82 429.9)">#, #, #</text><rect class="cls-19" x="344.38" y="220.27" width="20.1" height="3.28"/><rect class="cls-19" x="344.38" y="226.03" width="20.1" height="3.28"/><rect class="cls-19" x="344.38" y="231.78" width="20.1" height="3.28"/><rect class="cls-13" x="344.38" y="331.72" width="197.13" height="51.27"/><rect class="cls-13" x="344.38" y="389.19" width="197.13" height="51.27"/><rect class="cls-20" x="354.43" y="342.18" width="30.15" height="30.15"/><rect class="cls-20" x="354.43" y="399.75" width="30.15" height="30.15"/><text class="cls-15" transform="translate(393.2 468.84)">Line<tspan x="0" y="9">Number</tspan></text><text class="cls-17" transform="translate(393.2 487.51)">Line Description</text><text class="cls-18" transform="translate(483.82 487.51)">#, #, #</text><rect class="cls-13" x="344.38" y="446.8" width="197.13" height="51.27"/><rect class="cls-20" x="354.43" y="457.35" width="30.15" height="30.15"/><text class="cls-15" transform="translate(393.2 525.38)">Line<tspan x="0" y="9">Number</tspan></text><text class="cls-17" transform="translate(393.2 544.05)">Line Description</text><text class="cls-18" transform="translate(483.82 544.05)">#, #, #</text><rect class="cls-13" x="344.38" y="503.33" width="197.13" height="51.27"/><rect class="cls-20" x="354.43" y="513.89" width="30.15" height="30.15"/><rect class="cls-21" x="344.38" y="288.77" width="98.56" height="19.69"/><rect class="cls-13" x="442.95" y="288.77" width="98.56" height="19.69"/><text class="cls-22" transform="translate(369.51 302.31)">Outbound</text><text class="cls-23" transform="translate(477.33 302.31)">Inbound</text><g class="cls-24"><text class="cls-15" transform="translate(393.2 582.05)">Line<tspan x="0" y="9">Number</tspan></text><text class="cls-17" transform="translate(393.2 600.71)">Line Description</text><text class="cls-18" transform="translate(483.82 600.71)">#, #, #</text><rect class="cls-13" x="344.38" y="560" width="197.13" height="51.27"/><rect class="cls-20" x="354.43" y="570.56" width="30.15" height="30.15"/></g><rect class="cls-13" x="95.3" y="210.46" width="213.5" height="381.49"/><rect class="cls-13" x="95.3" y="210.46" width="213.5" height="34.41"/><text class="cls-14" transform="translate(183.24 232.15)">Home</text><text class="cls-15" transform="translate(102.9 279.74)">Nearby <tspan class="cls-16" x="35" y="0">T</tspan><tspan x="39.82" y="0">ransit</tspan></text><rect class="cls-19" x="102.9" y="220.27" width="20.1" height="3.28"/><rect class="cls-19" x="102.9" y="226.03" width="20.1" height="3.28"/><rect class="cls-19" x="102.9" y="231.78" width="20.1" height="3.28"/><text class="cls-15" transform="translate(151.73 320.57)"><tspan class="cls-16">T<tspan class="cls-25" x="4.82" y="0">ransit</tspan></tspan><tspan x="0" y="9">Name</tspan></text><rect class="cls-13" x="102.9" y="288.77" width="197.13" height="51.27"/><rect class="cls-20" x="112.96" y="299.23" width="30.15" height="30.15"/><polyline class="cls-13" points="286.12 315.17 278.72 322.56 271.32 315.17"/><text class="cls-15" transform="translate(151.73 377.63)"><tspan class="cls-16">T<tspan class="cls-25" x="4.82" y="0">ransit</tspan></tspan><tspan x="0" y="9">Name</tspan></text><rect class="cls-13" x="102.9" y="345.83" width="197.13" height="51.27"/><rect class="cls-20" x="112.96" y="356.29" width="30.15" height="30.15"/><polyline class="cls-13" points="286.12 372.23 278.72 379.63 271.32 372.23"/><text class="cls-15" transform="translate(151.73 435.06)"><tspan class="cls-16">T<tspan class="cls-25" x="4.82" y="0">ransit</tspan></tspan><tspan x="0" y="9">Name</tspan></text><rect class="cls-13" x="102.9" y="403.27" width="197.13" height="51.27"/><rect class="cls-20" x="112.96" y="413.73" width="30.15" height="30.15"/><polyline class="cls-13" points="286.12 429.66 278.72 437.06 271.32 429.66"/><rect class="cls-20" x="336.77" y="769.79" width="213.5" height="243.69"/><rect class="cls-13" x="336.77" y="632" width="213.5" height="381.49"/><rect class="cls-13" x="336.77" y="632" width="213.5" height="34.41"/><text class="cls-14" transform="translate(391.12 653.69)">Outbound Line #</text><text class="cls-15" transform="translate(393.2 688.36)">Line<tspan x="0" y="9">Number</tspan></text><text class="cls-17" transform="translate(393.2 707.02)">Line Description</text><text class="cls-18" transform="translate(483.82 705.66)">#, #, #</text><rect class="cls-19" x="344.38" y="641.81" width="20.1" height="3.28"/><rect class="cls-19" x="344.38" y="647.56" width="20.1" height="3.28"/><rect class="cls-19" x="344.38" y="653.32" width="20.1" height="3.28"/><rect class="cls-13" x="336.77" y="666.41" width="213.5" height="103.38"/><rect class="cls-20" x="354.43" y="676.87" width="30.15" height="30.15"/><line class="cls-13" x1="354.43" y1="726.41" x2="527.6" y2="726.41"/><circle class="cls-20" cx="366.98" cy="748.71" r="8.15"/><circle class="cls-20" cx="406.91" cy="748.71" r="8.15"/><circle class="cls-20" cx="444.39" cy="748.71" r="8.15"/><rect class="cls-20" x="94.72" y="886.15" width="213.5" height="127.33"/><rect class="cls-13" x="94.72" y="632" width="213.5" height="381.49"/><rect class="cls-13" x="94.72" y="632" width="213.5" height="34.41"/><text class="cls-14" transform="translate(179.56 653.69)">Sea<tspan class="cls-26" x="24.11" y="0">r</tspan><tspan x="28.52" y="0">ch</tspan></text><rect class="cls-19" x="102.33" y="641.81" width="20.1" height="3.28"/><rect class="cls-19" x="102.33" y="647.56" width="20.1" height="3.28"/><rect class="cls-19" x="102.33" y="653.32" width="20.1" height="3.28"/><rect class="cls-13" x="112.96" y="691.95" width="174.92" height="19.69"/><text class="cls-27" transform="translate(119.43 705.64)">What is the transit agency name?</text><rect class="cls-20" x="115.13" y="869.84" width="30.15" height="16.31"/><text class="cls-15" transform="translate(151.73 769.28)"><tspan class="cls-16">T<tspan class="cls-25" x="4.82" y="0">ransit</tspan></tspan><tspan x="0" y="9">Name</tspan></text><rect class="cls-13" x="94.72" y="731.23" width="213.5" height="154.92"/><rect class="cls-20" x="112.96" y="747.95" width="30.15" height="30.15"/><text class="cls-15" transform="translate(151.88 831.84)"><tspan class="cls-16">T<tspan class="cls-25" x="4.82" y="0">ransit</tspan></tspan><tspan x="0" y="9">Name</tspan></text><rect class="cls-20" x="113.11" y="810.51" width="30.15" height="30.15"/><line class="cls-13" x1="112.38" y1="795.07" x2="287.88" y2="795.07"/><line class="cls-13" x1="112.38" y1="856.84" x2="287.88" y2="856.84"/></g></svg>