<svg xmlns="http://www.w3.org/2000/svg" viewBox="0 0 1065 1422.33"><defs><style>.cls-1{fill:#f5f5f5;}.cls-2{fill:#2083b6;}.cls-16,.cls-18,.cls-3{fill:#81be41;}.cls-4{font-size:86.78px;font-family:HelveticaNeueLTStd-Bd, Helvetica Neue LT Std;}.cls-14,.cls-22,.cls-4,.cls-7{fill:#fff;}.cls-5{fill:#e6e6e5;}.cls-6{fill:#d6e186;}.cls-15,.cls-20,.cls-21,.cls-7,.cls-9{stroke:#c8c8c8;}.cls-11,.cls-12,.cls-14,.cls-15,.cls-17,.cls-18,.cls-20,.cls-21,.cls-7,.cls-8,.cls-9{stroke-linecap:round;stroke-linejoin:round;}.cls-11,.cls-12,.cls-14,.cls-15,.cls-16,.cls-17,.cls-18,.cls-20,.cls-21,.cls-7,.cls-8,.cls-9{stroke-width:3px;}.cls-15,.cls-19,.cls-8{fill:#f0f0f0;}.cls-8{stroke:#f0f0f0;}.cls-11,.cls-17,.cls-9{fill:none;}.cls-10{fill:#64b6e0;}.cls-11,.cls-14{stroke:#fff;}.cls-12{fill:#231f20;stroke:#231f20;}.cls-13{fill:#4f7436;}.cls-16,.cls-17,.cls-18{stroke:#81be41;}.cls-16{stroke-miterlimit:10;}.cls-20{fill:#c8c8c8;}.cls-21{fill:#e6e6e6;}.cls-23{fill:#9cd338;}.cls-24{font-size:18px;font-family:HelveticaNeueLTStd-Roman, Helvetica Neue LT Std;}.cls-25{letter-spacing:-0.02em;}</style></defs><title>NextbusRedesign</title><g id="Layer_8" data-name="Layer 8"><rect class="cls-1" x="-16.12" y="-21.02" width="1092.92" height="1476.93"/><rect class="cls-1" x="-16.12" y="1163.55" width="1092.92" height="1532.97"/><circle class="cls-2" cx="107.62" cy="126.36" r="12.62"/><circle class="cls-3" cx="155.12" cy="126.36" r="12.62"/><circle class="cls-3" cx="200" cy="126.36" r="12.62"/><circle class="cls-3" cx="248.81" cy="126.36" r="12.62"/><text class="cls-4" transform="translate(912.08 709.05) rotate(90)">flow</text><rect class="cls-5" x="303.37" y="315.76" width="75.63" height="452.34"/><rect class="cls-5" x="303.37" y="836.76" width="75.63" height="318.67"/><rect class="cls-5" x="690.04" y="315.76" width="75.63" height="452.34"/><rect class="cls-6" x="303.65" y="714.12" width="442.13" height="75.63"/><rect class="cls-5" x="303.65" y="1079.8" width="310.66" height="75.63"/><rect class="cls-5" x="148.07" y="336.59" width="794.08" height="75.63"/><rect class="cls-7" x="68.07" y="236.32" width="160" height="274.07"/><circle class="cls-8" cx="148.07" cy="373.35" r="48.04"/><rect class="cls-7" x="261.19" y="236.32" width="160" height="274.07"/><line class="cls-9" x1="261.19" y1="268.65" x2="421.19" y2="268.65"/><path class="cls-3" d="M391.69,304.82h-120v39h120a19.5,19.5,0,0,0,0-39Z"/><path class="cls-10" d="M391.69,353.85h-120v39h120a19.5,19.5,0,0,0,0-39Z"/><polyline class="cls-11" points="393.69 325.98 397.03 322.65 400.36 325.98"/><polyline class="cls-11" points="393.69 375.02 397.03 371.69 400.36 375.02"/><rect class="cls-12" x="271.69" y="284.98" width="43.17" height="6.67"/><rect class="cls-12" x="286.19" y="322.65" width="43.17" height="6.67"/><rect class="cls-12" x="286.19" y="370.02" width="43.17" height="6.67"/><rect class="cls-13" x="271.69" y="244.82" width="14.5" height="14.5"/><rect class="cls-13" x="397.03" y="244.82" width="14.5" height="14.5"/><rect class="cls-12" x="319.61" y="248.73" width="43.17" height="6.67"/><rect class="cls-7" x="454.32" y="236.32" width="160" height="274.07"/><line class="cls-9" x1="454.32" y1="268.65" x2="614.32" y2="268.65"/><path class="cls-3" d="M584.82,304.82h-120V436h120c3.11,0,19.5-2.67,19.5-20.69v-91A19.5,19.5,0,0,0,584.82,304.82Z"/><path class="cls-10" d="M584.82,446.22h-120v39h120a19.5,19.5,0,0,0,0-39Z"/><polyline class="cls-11" points="593.48 322.65 590.15 325.98 586.82 322.65"/><polyline class="cls-11" points="586.82 467.38 590.15 464.05 593.48 467.38"/><rect class="cls-12" x="464.82" y="284.98" width="43.17" height="6.67"/><rect class="cls-13" x="464.82" y="244.82" width="14.5" height="14.5"/><rect class="cls-13" x="590.15" y="244.82" width="14.5" height="14.5"/><rect class="cls-12" x="512.73" y="248.73" width="43.17" height="6.67"/><rect class="cls-12" x="480.39" y="322.65" width="43.17" height="6.67"/><rect class="cls-14" x="464.82" y="347.32" width="128.67" height="32.67"/><rect class="cls-14" x="464.82" y="389.32" width="128.67" height="32.67"/><rect class="cls-12" x="480.39" y="360.32" width="43.17" height="6.67"/><rect class="cls-12" x="566.78" y="360.32" width="16.42" height="6.67"/><rect class="cls-12" x="566.73" y="402.32" width="16.42" height="6.67"/><rect class="cls-12" x="480.39" y="402.32" width="43.17" height="6.67"/><rect class="cls-9" x="647.44" y="236.32" width="160" height="274.07"/><rect class="cls-15" x="647.44" y="268.65" width="160" height="241.74"/><line class="cls-9" x1="647.44" y1="268.65" x2="807.44" y2="268.65"/><path class="cls-16" d="M777.94,285.16h-120V358h120c3.11,0,19.5-2.67,19.5-20.69V304.66A19.5,19.5,0,0,0,777.94,285.16Z"/><polyline class="cls-11" points="718.94 347.4 722.27 344.07 725.61 347.4"/><rect class="cls-13" x="657.94" y="244.82" width="14.5" height="14.5"/><rect class="cls-13" x="783.27" y="244.82" width="14.5" height="14.5"/><rect class="cls-12" x="705.86" y="248.73" width="43.17" height="6.67"/><rect class="cls-14" x="657.94" y="299.92" width="128.67" height="32.67"/><rect class="cls-12" x="673.52" y="312.92" width="43.17" height="6.67"/><rect class="cls-12" x="759.9" y="312.92" width="16.42" height="6.67"/><polyline class="cls-17" points="647.44 499.32 754.28 408.98 807.44 408.98"/><rect class="cls-9" x="647.44" y="268.65" width="160" height="241.74"/><rect class="cls-18" x="669.86" y="459.98" width="29.68" height="14.8" transform="translate(-137.11 576.42) rotate(-41.88)"/><polygon class="cls-18" points="745.78 390.98 762.12 390.98 753.95 399.15 745.78 390.98"/><rect class="cls-9" x="840.57" y="236.32" width="160" height="274.07"/><rect class="cls-15" x="840.57" y="268.65" width="160" height="241.74"/><line class="cls-9" x1="840.57" y1="268.65" x2="1000.57" y2="268.65"/><path class="cls-16" d="M971.07,285.16h-120v93.52h120c3.11,0,19.5-2.67,19.5-20.69V304.66A19.5,19.5,0,0,0,971.07,285.16Z"/><polyline class="cls-11" points="918.73 367.65 915.4 370.99 912.07 367.65"/><rect class="cls-13" x="851.07" y="244.82" width="14.5" height="14.5"/><rect class="cls-13" x="976.4" y="244.82" width="14.5" height="14.5"/><rect class="cls-12" x="898.98" y="248.73" width="43.17" height="6.67"/><rect class="cls-14" x="851.07" y="299.92" width="128.67" height="58.02"/><rect class="cls-12" x="866.64" y="312.92" width="43.17" height="6.67"/><rect class="cls-12" x="866.64" y="328.09" width="43.17" height="6.67"/><rect class="cls-12" x="953.02" y="312.92" width="16.42" height="6.67"/><rect class="cls-12" x="953.02" y="328.09" width="16.42" height="6.67"/><rect class="cls-12" x="953.02" y="343.82" width="16.42" height="6.67"/><polyline class="cls-17" points="840.57 499.32 947.41 408.98 1000.57 408.98"/><rect class="cls-9" x="840.57" y="268.65" width="160" height="241.74"/><rect class="cls-18" x="862.99" y="459.98" width="29.68" height="14.8" transform="translate(-87.79 705.33) rotate(-41.88)"/><polygon class="cls-18" points="938.91 390.98 955.24 390.98 947.08 399.15 938.91 390.98"/><rect class="cls-7" x="261.19" y="611.56" width="160" height="274.07"/><polyline class="cls-3" points="420.07 680.06 353.36 680.06 338.03 680.06 318.53 680.06 318.53 719.06 338.03 719.06 353.36 719.06 421.19 719.06"/><polygon class="cls-10" points="421.19 729.1 353.11 729.1 337.77 729.1 318.27 729.1 318.27 768.1 337.77 768.1 353.11 768.1 421.19 768.1 421.19 729.1"/><line class="cls-9" x1="307.77" y1="643.9" x2="420.94" y2="643.9"/><rect class="cls-12" x="318.27" y="660.23" width="43.17" height="6.67"/><rect class="cls-13" x="261.19" y="611.56" width="46.58" height="274.07"/><rect class="cls-12" x="332.77" y="697.9" width="43.17" height="6.67"/><rect class="cls-12" x="332.77" y="745.27" width="43.17" height="6.67"/><rect class="cls-13" x="318.27" y="620.06" width="14.5" height="14.5"/><rect class="cls-12" x="366.19" y="623.98" width="43.17" height="6.67"/><rect class="cls-19" x="277.23" y="620.06" width="14.5" height="14.5"/><rect class="cls-19" x="277.23" y="670.74" width="14.5" height="14.5"/><rect class="cls-19" x="277.23" y="721.42" width="14.5" height="14.5"/><rect class="cls-19" x="277.23" y="772.1" width="14.5" height="14.5"/><line class="cls-7" x1="421.19" y1="611.56" x2="421.19" y2="885.64"/><rect class="cls-7" x="454.32" y="611.56" width="160" height="274.07"/><line class="cls-9" x1="454.32" y1="643.9" x2="614.32" y2="643.9"/><rect class="cls-12" x="464.82" y="660.23" width="43.17" height="6.67"/><rect class="cls-12" x="464.82" y="707.56" width="43.17" height="6.67"/><rect class="cls-13" x="464.82" y="620.06" width="14.5" height="14.5"/><rect class="cls-13" x="590.15" y="620.06" width="14.5" height="14.5"/><rect class="cls-12" x="512.73" y="623.98" width="43.17" height="6.67"/><rect class="cls-9" x="464.57" y="679.56" width="140.08" height="16.33"/><path class="cls-3" d="M584.86,728.08h-120v39h120a19.5,19.5,0,0,0,0-39Z"/><path class="cls-10" d="M584.86,777.12h-120v39h120a19.5,19.5,0,0,0,0-39Z"/><rect class="cls-12" x="479.36" y="745.92" width="43.17" height="6.67"/><rect class="cls-12" x="479.36" y="793.29" width="43.17" height="6.67"/><rect class="cls-7" x="454.32" y="980.58" width="160" height="274.07"/><rect class="cls-7" x="464.57" y="1025.69" width="140.08" height="33.21"/><line class="cls-7" x1="454.32" y1="1012.91" x2="614.32" y2="1012.91"/><rect class="cls-12" x="473.82" y="1039.24" width="43.17" height="6.67"/><rect class="cls-13" x="464.82" y="989.08" width="14.5" height="14.5"/><rect class="cls-13" x="590.15" y="989.08" width="14.5" height="14.5"/><rect class="cls-7" x="464.57" y="1072.65" width="140.08" height="33.21"/><rect class="cls-18" x="581.86" y="1035.05" width="14.5" height="14.5"/><rect class="cls-20" x="581.86" y="1082.28" width="14.5" height="14.5"/><rect class="cls-7" x="464.57" y="1120.31" width="140.08" height="33.21"/><rect class="cls-20" x="581.86" y="1129.94" width="14.5" height="14.5"/><rect class="cls-12" x="512.73" y="992.99" width="43.17" height="6.67"/><rect class="cls-20" x="473.82" y="1086.19" width="43.17" height="6.67"/><rect class="cls-20" x="473.82" y="1133.86" width="43.17" height="6.67"/><rect class="cls-7" x="647.44" y="611.56" width="160" height="274.07"/><line class="cls-9" x1="647.44" y1="643.9" x2="807.44" y2="643.9"/><rect class="cls-12" x="657.94" y="660.23" width="43.17" height="6.67"/><rect class="cls-12" x="665.94" y="684.39" width="43.17" height="6.67"/><rect class="cls-13" x="657.94" y="620.06" width="14.5" height="14.5"/><rect class="cls-13" x="783.28" y="620.06" width="14.5" height="14.5"/><rect class="cls-12" x="705.86" y="623.98" width="43.17" height="6.67"/><rect class="cls-9" x="657.69" y="679.56" width="140.09" height="16.33"/><rect class="cls-21" x="647.44" y="777.12" width="160" height="108.51"/><rect class="cls-22" x="657.94" y="785.67" width="139.84" height="16"/><rect class="cls-22" x="657.94" y="811.37" width="139.84" height="16"/><rect class="cls-22" x="657.94" y="837.37" width="139.84" height="16"/><rect class="cls-22" x="691.73" y="862.04" width="62.5" height="16"/><rect class="cls-22" x="657.94" y="862.04" width="26.29" height="16"/><rect class="cls-22" x="760.73" y="862.04" width="37.04" height="16"/><path class="cls-23" d="M165,395.49H131.15a4.7,4.7,0,0,1-4.7-4.7V350.15a4.7,4.7,0,0,1,4.7-4.7H165a4.71,4.71,0,0,1,4.7,4.7v40.64A4.71,4.71,0,0,1,165,395.49Zm-33.84-47.8a2.47,2.47,0,0,0-2.47,2.46v40.64a2.47,2.47,0,0,0,2.47,2.46H165a2.46,2.46,0,0,0,2.46-2.46V350.15a2.47,2.47,0,0,0-2.46-2.46Z"/><path class="cls-23" d="M134.56,401.25h-1.83a2.91,2.91,0,0,1-2.91-2.91v-4h2.23v4a.69.69,0,0,0,.68.67h1.83a.69.69,0,0,0,.68-.67v-4h2.23v4A2.91,2.91,0,0,1,134.56,401.25Z"/><path class="cls-23" d="M163.31,401.25h-1.84a2.92,2.92,0,0,1-2.91-2.91v-4h2.24v4a.68.68,0,0,0,.67.67h1.84a.68.68,0,0,0,.67-.67v-4h2.24v4A2.92,2.92,0,0,1,163.31,401.25Z"/><path class="cls-23" d="M136.1,387.91a3.63,3.63,0,1,1,3.63-3.63A3.63,3.63,0,0,1,136.1,387.91Zm0-4.87c-.93,0-1.24.31-1.24,1.24s.31,1.25,1.24,1.25,1.25-.31,1.25-1.25S137,383,136.1,383Z"/><path class="cls-23" d="M160,387.91a3.63,3.63,0,1,1,3.63-3.63A3.64,3.64,0,0,1,160,387.91Zm0-4.87c-.94,0-1.25.31-1.25,1.24s.31,1.25,1.25,1.25,1.25-.31,1.25-1.25S161,383,160,383Z"/><rect class="cls-23" x="138.63" y="383.16" width="18.86" height="2.24"/><rect class="cls-23" x="127.57" y="353.59" width="41" height="2.24"/><path class="cls-23" d="M149.2,352h-7.31a1.12,1.12,0,1,1,0-2.24h7.31a1.12,1.12,0,0,1,0,2.24Z"/><path class="cls-23" d="M154.25,352h-1.51a1.12,1.12,0,1,1,0-2.24h1.51a1.12,1.12,0,0,1,0,2.24Z"/><text class="cls-24" transform="translate(112.43 215.49)">Splash </text><text class="cls-24" transform="translate(172.44 209.5) scale(0.58)">(0)</text><text class="cls-24" transform="translate(309.13 215.49)">Home </text><text class="cls-24" transform="translate(362.48 209.5) scale(0.58)">(0)</text><text class="cls-24" transform="translate(468.59 215.49)">Home-Agency </text><text class="cls-24" transform="translate(589.28 209.5) scale(0.58)">(1)</text><text class="cls-24" transform="translate(696.89 215.49)">Detail </text><text class="cls-24" transform="translate(747.56 209.5) scale(0.58)">(2)</text><text class="cls-24" transform="translate(885.62 215.49)">Detail 2 </text><text class="cls-24" transform="translate(951.3 209.5) scale(0.58)">(2.5)</text><text class="cls-24" transform="translate(492.62 587.57)">Sea<tspan class="cls-25" x="31" y="0">r</tspan><tspan x="36.67" y="0">ch </tspan></text><text class="cls-24" transform="translate(553.97 581.58) scale(0.58)">(2x4)</text><text class="cls-24" transform="translate(498.59 958.81)">Alarms </text><text class="cls-24" transform="translate(559.27 952.81) scale(0.58)">(2)</text><text class="cls-24" transform="translate(664.22 587.57)">Sea<tspan class="cls-25" x="31" y="0">r</tspan><tspan x="36.67" y="0">ch - Input </tspan></text><text class="cls-24" transform="translate(783.6 581.58) scale(0.58)">(3x4)</text><text class="cls-24" transform="translate(300.3 587.57)">Settings </text><text class="cls-24" transform="translate(371.31 581.57) scale(0.58)">(1)</text></g></svg>