<svg xmlns="http://www.w3.org/2000/svg" xmlns:xlink="http://www.w3.org/1999/xlink" viewBox="0 0 1065 1153.18"><defs><style>.cls-1,.cls-5{fill:none;}.cls-2{fill:#f5f5f5;}.cls-3{fill:#fff;}.cls-4{fill:#282828;}.cls-5,.cls-8{stroke:#5f6263;stroke-miterlimit:10;}.cls-6,.cls-8{fill:#5f6263;}.cls-7{fill:#e6e6e5;}.cls-9{clip-path:url(#clip-path);}</style><clipPath id="clip-path"><rect class="cls-1" x="336.77" y="210.46" width="213.5" height="381.49"/></clipPath></defs><title>NextbusRedesign</title><g id="Layer_8" data-name="Layer 8"><rect class="cls-2" x="-16.12" y="-1474.51" width="1092.92" height="1476.93"/><rect class="cls-2" x="-16.12" y="-289.94" width="1092.92" height="1532.97"/><path class="cls-3" d="M956.94,134.08v11.71h-8.33V146a15.86,15.86,0,0,1,9.55,14.32,9.29,9.29,0,0,1-.44,2.69H946.27a22.56,22.56,0,0,0,.43-4.43c0-9-6.51-12.15-14.4-12.15H912.08V134.08Z"/><path class="cls-3" d="M958.16,188.06c0,14.14-9.38,23.25-23.69,23.25s-23.61-9.11-23.61-23.25,9.37-23.17,23.61-23.17S958.16,174,958.16,188.06Zm-38,0c0,8.41,7.2,10.93,14.32,10.93s14.4-2.52,14.4-10.93-7.2-10.85-14.4-10.85S920.15,179.72,920.15,188.06Z"/><path class="cls-3" d="M912.08,261.38V249.67h6.25v-.26a16,16,0,0,1-7.47-13.71c0-13.11,7.38-16.4,18.49-16.4h27.59v12.32H931.6c-7.37,0-11,2.17-11,7.89,0,6.69,3.73,9.55,12.84,9.55h23.52v12.32Z"/><path class="cls-3" d="M956.94,270.75v11.72h-6.25v.26a16,16,0,0,1,7.47,13.71c0,13.1-7.38,16.4-18.49,16.4H912.08V300.52h25.34c7.37,0,11-2.17,11-7.9,0-6.68-3.73-9.54-12.85-9.54H912.08V270.75Z"/><path class="cls-3" d="M917.8,354.23v-.17c-4.85-2.86-6.94-7.9-6.94-13.62,0-13.54,11.63-20.14,24-20.14,12.06,0,23.26,6.69,23.26,19.88,0,5.29-2.26,10.5-6.69,13.27v.18H974V366h-62V354.23Zm31.07-10.76c0-8.07-6.94-10.84-14.32-10.84-7,0-14.4,3.21-14.4,10.84,0,8.16,7.11,10.59,14.49,10.59S948.87,351.46,948.87,343.47Z"/><path class="cls-3" d="M912.08,428.69V416.37h39.39V401.09h9.29c-.18,8.6,2.78,16.49,12.06,17.79v9.81Z"/><path class="cls-4" d="M947.34,505.26v3.61l-30.87,8v.1l30.87,8.59v4.2l-30.87,8.65v.09l30.87,8v3.36l-35.26-9.73v-3.55l31.56-8.94v-.1l-31.56-8.89V515Z"/><path class="cls-4" d="M937.56,552.71v3.11H912.08v-3.11Zm9.78,0v3.11h-5v-3.11Z"/><path class="cls-4" d="M937.56,561.06v2.86h-6v.1a9.41,9.41,0,0,1,6.32,9.63H934.8c.29-5.63-3.85-9.48-9.14-9.48H912.08v-3.11Z"/><path class="cls-4" d="M924,577.32c-4.54,0-10,2.42-10,8.39,0,4.55,2.66,7,6.51,8v3.12c-5.77-1.34-9.13-4.7-9.13-11.12,0-8.1,6.22-11.51,13.48-11.51,6.72,0,13.49,3.41,13.49,11.51s-7.17,11.46-14.33,11.21Zm2.62,16.49c4.69-.15,9.09-3.06,9.09-8.1s-4.45-7.9-9.09-8.39Z"/><path class="cls-4" d="M935,610v-5H912.08v-3.12H935v-4.34h2.61v4.34h2.33c4.39-.05,7.45,1.19,7.45,6.18a17.38,17.38,0,0,1-.19,2.62h-2.67a12.7,12.7,0,0,0,.25-2.28c0-3.45-2.18-3.35-4.94-3.4h-2.23v5Z"/><path class="cls-4" d="M937.56,612.58v2.86h-6v.1a9.41,9.41,0,0,1,6.32,9.63H934.8c.29-5.63-3.85-9.48-9.14-9.48H912.08v-3.11Z"/><path class="cls-4" d="M929.76,627c6,.3,8.55,4.5,8.55,10.32,0,4.5-1.39,9.39-8.2,9.39H916.57a1.65,1.65,0,0,0-1.87,1.83,3,3,0,0,0,.19,1h-2.61a8.52,8.52,0,0,1-.2-2c0-3.16,1.78-3.66,4.44-3.66v-.09c-3.31-2.18-5.18-4.4-5.18-9.29,0-4.69,2.32-8.54,7.45-8.54,7.17,0,7.41,7,8.2,13.68.3,2.57.65,4,3.46,4,4.2,0,5.24-3,5.24-6.67,0-3.85-1.78-6.72-5.93-6.82ZM926,643.63v-.1c-.74-.4-1-1.78-1.14-2.62-.94-5.28-.89-11.85-5.88-11.85-3.11,0-5,2.76-5,5.68,0,4.74,3,8.94,8,8.89Z"/><path class="cls-4" d="M937.56,652.53v2.86h-4.29v.15a8.91,8.91,0,0,1,5,8.35c0,3.36-1.63,6.37-5,7.31a8.61,8.61,0,0,1,5,8.1c0,5.58-2.92,8.45-8.94,8.45H912.08v-3.12h17.14c4.2,0,6.47-1.58,6.47-6,0-5.39-4.45-6.92-9.19-6.92H912.08v-3.11h17.29c3.45,0,6.32-1.38,6.32-5.33,0-5.39-4.05-7.56-9.39-7.61H912.08v-3.11Z"/><path class="cls-4" d="M924,694.94c-4.54,0-10,2.42-10,8.4,0,4.54,2.66,7,6.51,8v3.11c-5.77-1.33-9.13-4.69-9.13-11.11,0-8.1,6.22-11.51,13.48-11.51,6.72,0,13.49,3.41,13.49,11.51S931.14,714.8,924,714.55Zm2.62,16.5c4.69-.15,9.09-3.06,9.09-8.1s-4.45-7.91-9.09-8.4Z"/><rect class="cls-5" x="336.77" y="210.46" width="213.5" height="381.49"/><rect class="cls-5" x="336.77" y="210.46" width="213.5" height="34.41"/><path d="M425.81,222.15h1.33v4.3h5.27v-4.3h1.33v10h-1.33v-4.58h-5.27v4.58h-1.33Z"/><path d="M438.85,224.74c2.3,0,3.51,1.67,3.51,3.8s-1.21,3.78-3.51,3.78-3.52-1.66-3.52-3.78S436.55,224.74,438.85,224.74Zm0,6.53c1.24,0,2.25-1,2.25-2.73s-1-2.75-2.25-2.75-2.26,1-2.26,2.75S437.6,231.27,438.85,231.27Z"/><path d="M443.76,224.91h1.12V226h0a2.65,2.65,0,0,1,2.34-1.24,1.92,1.92,0,0,1,2,1.24,2.68,2.68,0,0,1,2.27-1.24c1.44,0,2.41.61,2.41,2.11v5.3h-1.19v-4.74c0-.9-.24-1.62-1.4-1.62a1.76,1.76,0,0,0-1.9,1.85v4.51h-1.19v-4.74c0-.94-.29-1.62-1.36-1.62a2,2,0,0,0-1.93,1.85v4.51h-1.19Z"/><path d="M461.88,229.86a2.92,2.92,0,0,1-3.09,2.46c-2.32,0-3.41-1.59-3.48-3.81a3.49,3.49,0,0,1,3.4-3.77c2.57,0,3.35,2.4,3.28,4.15h-5.42a2.13,2.13,0,0,0,2.26,2.38,1.73,1.73,0,0,0,1.87-1.41Zm-1.15-2a2.08,2.08,0,0,0-4.16,0Z"/><path d="M345.15,272.61h1l3.76,5.78h0v-5.78h.9v7.13h-1L346.07,274h0v5.72h-.9Z"/><path d="M356.65,278.11a2.08,2.08,0,0,1-2.21,1.75c-1.65,0-2.43-1.14-2.48-2.71a2.49,2.49,0,0,1,2.43-2.69c1.83,0,2.39,1.71,2.34,3h-3.87a1.52,1.52,0,0,0,1.61,1.69,1.25,1.25,0,0,0,1.34-1Zm-.82-1.44a1.49,1.49,0,0,0-1.49-1.46,1.47,1.47,0,0,0-1.48,1.46Z"/><path d="M362.19,279.72a1.15,1.15,0,0,1-.61.14c-.44,0-.72-.24-.72-.8a2.29,2.29,0,0,1-1.82.8c-.94,0-1.71-.42-1.71-1.44,0-1.17.87-1.42,1.75-1.59s1.74-.12,1.74-.76-.61-.86-1.15-.86c-.72,0-1.25.22-1.29,1h-.85c.05-1.28,1-1.73,2.19-1.73.93,0,1.94.21,1.94,1.42v2.66c0,.39,0,.57.27.57a.73.73,0,0,0,.26-.05Zm-1.38-2.64a4.38,4.38,0,0,1-1.54.35c-.56.1-1,.3-1,.92s.48.76,1,.76c1.12,0,1.58-.69,1.58-1.16Z"/><path d="M363,274.58h.8v1.09h0a1.88,1.88,0,0,1,1.9-1.21v.9c-1.37,0-1.87.78-1.87,2.09v2.29H363Z"/><path d="M366.34,272.61h.85v2.67h0a1.74,1.74,0,0,1,1.65-.82,2.42,2.42,0,0,1,2.38,2.72,2.38,2.38,0,0,1-2.36,2.68,2,2,0,0,1-1.67-.81h0v.69h-.85Zm2.4,2.6c-1.14,0-1.58,1-1.58,2s.46,1.95,1.63,1.95,1.55-1,1.55-2S369.84,275.21,368.74,275.21Z"/><path d="M374.27,280.43c-.39,1-.74,1.38-1.5,1.38a1.69,1.69,0,0,1-.59-.09v-.78a1.74,1.74,0,0,0,.5.12.73.73,0,0,0,.7-.47l.35-.88-2.05-5.13h1l1.51,4.22h0l1.45-4.22h.9Z"/><path d="M381.78,273.41H379.4v-.8h5.71v.8h-2.38v6.33h-1Z"/><path d="M384.81,274.58h.8v1.09h0a1.88,1.88,0,0,1,1.9-1.21v.9c-1.37,0-1.87.78-1.87,2.09v2.29h-.85Z"/><path d="M392.75,279.72a1.15,1.15,0,0,1-.61.14c-.44,0-.72-.24-.72-.8a2.29,2.29,0,0,1-1.82.8c-.94,0-1.71-.42-1.71-1.44,0-1.17.87-1.42,1.75-1.59s1.74-.12,1.74-.76-.61-.86-1.15-.86c-.72,0-1.25.22-1.29,1h-.85c.05-1.28,1-1.73,2.19-1.73.93,0,1.94.21,1.94,1.42v2.66c0,.39,0,.57.27.57a.73.73,0,0,0,.26-.05Zm-1.38-2.64a4.38,4.38,0,0,1-1.54.35c-.56.1-1,.3-1,.92s.48.76,1,.76c1.12,0,1.58-.69,1.58-1.16Z"/><path d="M393.54,274.58h.8v.82h0a1.8,1.8,0,0,1,1.68-.94c1.36,0,1.78.78,1.78,1.89v3.39H397v-3.49a1,1,0,0,0-1.05-1,1.45,1.45,0,0,0-1.53,1.62v2.91h-.85Z"/><path d="M399.62,278.12c0,.76.69,1,1.39,1,.53,0,1.25-.12,1.25-.77s-.84-.76-1.69-.95-1.69-.47-1.69-1.46,1-1.47,1.93-1.47c1.14,0,2.05.36,2.12,1.62h-.85c-.06-.66-.64-.87-1.2-.87s-1.1.14-1.1.66.9.71,1.69.9,1.69.47,1.69,1.47c0,1.22-1.15,1.62-2.2,1.62s-2.14-.47-2.19-1.74Z"/><path d="M405,273.65h-.85v-1H405Zm-.85.93H405v5.16h-.85Z"/><path d="M407.5,274.58h1v.75h-1v3.21c0,.38.11.45.64.45h.39v.75h-.65c-.88,0-1.23-.18-1.23-1.12v-3.29h-.88v-.75h.88V273h.85Z"/><path d="M394,346.53h.95v6.34h3.78v.8H394Z"/><path d="M400.3,347.57h-.85v-1h.85Zm-.85.93h.85v5.17h-.85Z"/><path d="M401.62,348.5h.8v.82h0a1.8,1.8,0,0,1,1.68-.94c1.36,0,1.78.78,1.78,1.89v3.4h-.85v-3.5a1,1,0,0,0-1.05-1,1.45,1.45,0,0,0-1.53,1.62v2.92h-.85Z"/><path d="M411.59,352a2.08,2.08,0,0,1-2.21,1.76c-1.65,0-2.43-1.14-2.48-2.72a2.49,2.49,0,0,1,2.43-2.69c1.83,0,2.39,1.71,2.34,3H407.8a1.52,1.52,0,0,0,1.61,1.7,1.25,1.25,0,0,0,1.34-1Zm-.82-1.44a1.49,1.49,0,0,0-1.49-1.46,1.47,1.47,0,0,0-1.48,1.46Z"/><path d="M394,355.53h1l3.76,5.79h0v-5.79h.9v7.14h-1l-3.73-5.73h0v5.73H394Z"/><path d="M405.34,362.67h-.8v-.82h0a1.8,1.8,0,0,1-1.68.94c-1.36,0-1.78-.78-1.78-1.89v-3.4h.85V361a1,1,0,0,0,1,1,1.45,1.45,0,0,0,1.53-1.62V357.5h.85Z"/><path d="M406.62,357.5h.8v.76h0a1.91,1.91,0,0,1,1.67-.88,1.37,1.37,0,0,1,1.42.88,1.91,1.91,0,0,1,1.62-.88c1,0,1.72.43,1.72,1.5v3.79H413v-3.39c0-.64-.17-1.15-1-1.15a1.25,1.25,0,0,0-1.35,1.32v3.22h-.85v-3.39c0-.67-.21-1.15-1-1.15a1.39,1.39,0,0,0-1.38,1.32v3.22h-.85Z"/><path d="M415.18,355.53H416v2.67h0a1.74,1.74,0,0,1,1.65-.82,2.42,2.42,0,0,1,2.38,2.72c0,1.46-.78,2.69-2.36,2.69a2,2,0,0,1-1.67-.81h0v.69h-.85Zm2.4,2.6c-1.14,0-1.58,1-1.58,1.95s.46,2,1.63,2,1.55-1,1.55-2S418.68,358.13,417.58,358.13Z"/><path d="M425.49,361a2.08,2.08,0,0,1-2.21,1.76c-1.65,0-2.43-1.14-2.48-2.72a2.49,2.49,0,0,1,2.43-2.69c1.83,0,2.39,1.71,2.34,3H421.7a1.52,1.52,0,0,0,1.61,1.7,1.25,1.25,0,0,0,1.34-1Zm-.82-1.44a1.49,1.49,0,0,0-1.49-1.46,1.47,1.47,0,0,0-1.48,1.46Z"/><path d="M426.42,357.5h.8v1.09h0a1.88,1.88,0,0,1,1.9-1.21v.9c-1.37,0-1.87.78-1.87,2.09v2.3h-.85Z"/><path d="M393.75,367.33h.66v4.44h2.65v.56h-3.31Z"/><path d="M398.17,368.06h-.59v-.73h.59Zm-.59.65h.59v3.62h-.59Z"/><path d="M399.1,368.71h.56v.58h0a1.26,1.26,0,0,1,1.18-.66c.95,0,1.24.54,1.24,1.32v2.38h-.59v-2.45a.69.69,0,0,0-.74-.73,1,1,0,0,0-1.07,1.14v2h-.59Z"/><path d="M406.08,371.18a1.47,1.47,0,0,1-1.55,1.24c-1.16,0-1.7-.8-1.74-1.91a1.75,1.75,0,0,1,1.7-1.88c1.28,0,1.68,1.19,1.64,2.07h-2.71a1.07,1.07,0,0,0,1.13,1.19.88.88,0,0,0,.94-.71Zm-.58-1a1,1,0,0,0-1-1,1,1,0,0,0-1,1Z"/><path d="M408.79,367.33h1.72a2.13,2.13,0,0,1,2.4,2.38c0,1.68-.74,2.62-2.4,2.62h-1.72Zm.67,4.44h1.1c.46,0,1.68-.12,1.68-2,0-1.19-.44-1.91-1.66-1.91h-1.12Z"/><path d="M416.71,371.18a1.47,1.47,0,0,1-1.55,1.24c-1.16,0-1.7-.8-1.74-1.91a1.75,1.75,0,0,1,1.71-1.88c1.28,0,1.67,1.19,1.63,2.07h-2.71a1.07,1.07,0,0,0,1.13,1.19.87.87,0,0,0,.94-.71Zm-.58-1a1,1,0,0,0-2.08,0Z"/><path d="M417.74,371.19c0,.53.49.7,1,.7s.87-.08.87-.54-.59-.54-1.18-.67-1.19-.33-1.19-1,.73-1,1.36-1c.8,0,1.43.25,1.48,1.13h-.59c-.05-.46-.45-.61-.84-.61s-.77.1-.77.46.63.5,1.18.64,1.18.32,1.18,1c0,.87-.8,1.15-1.54,1.15s-1.5-.33-1.53-1.23Z"/><path d="M423.34,369.87a.85.85,0,0,0-.9-.72c-.86,0-1.13.68-1.13,1.42s.3,1.32,1.06,1.32a.94.94,0,0,0,1-.88h.6a1.5,1.5,0,0,1-1.59,1.41,1.65,1.65,0,0,1-1.7-1.85,1.7,1.7,0,0,1,1.71-1.94,1.38,1.38,0,0,1,1.56,1.24Z"/><path d="M424.62,368.71h.56v.76h0a1.32,1.32,0,0,1,1.33-.84v.63c-1,0-1.31.54-1.31,1.46v1.61h-.59Z"/><path d="M427.6,368.06H427v-.73h.6Zm-.6.65h.6v3.62H427Z"/><path d="M428.54,368.71h.6v.49h0a1.22,1.22,0,0,1,1.16-.57,1.91,1.91,0,0,1,0,3.79,1.39,1.39,0,0,1-1.17-.57h0v1.87h-.6Zm1.68.44c-.79,0-1.1.69-1.1,1.37s.32,1.37,1.14,1.37,1.08-.69,1.08-1.4S431,369.15,430.22,369.15Z"/><path d="M433.5,368.71h.72v.53h-.72v2.24c0,.28.08.33.45.33h.27v.52h-.45c-.62,0-.86-.12-.86-.79v-2.3h-.62v-.53h.62v-1.08h.59Z"/><path d="M435.51,368.06h-.6v-.73h.6Zm-.6.65h.6v3.62h-.6Z"/><path d="M438,368.63a1.9,1.9,0,1,1-1.75,1.9A1.72,1.72,0,0,1,438,368.63Zm0,3.26c.63,0,1.13-.49,1.13-1.36s-.5-1.38-1.13-1.38-1.12.49-1.12,1.38S437.37,371.89,438,371.89Z"/><path d="M440.45,368.71H441v.58h0a1.27,1.27,0,0,1,1.18-.66c.95,0,1.25.54,1.25,1.32v2.38h-.6v-2.45a.68.68,0,0,0-.73-.73,1,1,0,0,0-1.07,1.14v2h-.6Z"/><path d="M394,404.1h.95v6.33h3.78v.8H394Z"/><path d="M400.3,405.14h-.85v-1h.85Zm-.85.93h.85v5.16h-.85Z"/><path d="M401.62,406.07h.8v.82h0a1.8,1.8,0,0,1,1.68-.94c1.36,0,1.78.78,1.78,1.89v3.39h-.85v-3.49a1,1,0,0,0-1.05-1,1.45,1.45,0,0,0-1.53,1.62v2.91h-.85Z"/><path d="M411.59,409.6a2.08,2.08,0,0,1-2.21,1.75c-1.65,0-2.43-1.14-2.48-2.71a2.49,2.49,0,0,1,2.43-2.69c1.83,0,2.39,1.71,2.34,3H407.8a1.52,1.52,0,0,0,1.61,1.69,1.25,1.25,0,0,0,1.34-1Zm-.82-1.44a1.49,1.49,0,0,0-1.49-1.46,1.47,1.47,0,0,0-1.48,1.46Z"/><path d="M394,413.1h1l3.76,5.78h0V413.1h.9v7.13h-1l-3.73-5.72h0v5.72H394Z"/><path d="M405.34,420.23h-.8v-.81h0a1.81,1.81,0,0,1-1.68.93c-1.36,0-1.78-.77-1.78-1.88v-3.4h.85v3.5a1,1,0,0,0,1,1,1.45,1.45,0,0,0,1.53-1.61v-2.92h.85Z"/><path d="M406.62,415.07h.8v.76h0a1.91,1.91,0,0,1,1.67-.88,1.37,1.37,0,0,1,1.42.88,1.91,1.91,0,0,1,1.62-.88c1,0,1.72.43,1.72,1.5v3.78H413v-3.38c0-.64-.17-1.15-1-1.15a1.25,1.25,0,0,0-1.35,1.32v3.21h-.85v-3.38c0-.67-.21-1.15-1-1.15a1.39,1.39,0,0,0-1.38,1.32v3.21h-.85Z"/><path d="M415.18,413.1H416v2.67h0a1.74,1.74,0,0,1,1.65-.82,2.42,2.42,0,0,1,2.38,2.72,2.38,2.38,0,0,1-2.36,2.68,2,2,0,0,1-1.67-.81h0v.69h-.85Zm2.4,2.6c-1.14,0-1.58,1-1.58,1.95s.46,2,1.63,2,1.55-1,1.55-2S418.68,415.7,417.58,415.7Z"/><path d="M425.49,418.6a2.08,2.08,0,0,1-2.21,1.75c-1.65,0-2.43-1.14-2.48-2.71a2.49,2.49,0,0,1,2.43-2.69c1.83,0,2.39,1.71,2.34,3H421.7a1.52,1.52,0,0,0,1.61,1.69,1.25,1.25,0,0,0,1.34-1Zm-.82-1.44a1.49,1.49,0,0,0-1.49-1.46,1.47,1.47,0,0,0-1.48,1.46Z"/><path d="M426.42,415.07h.8v1.09h0a1.88,1.88,0,0,1,1.9-1.21v.9c-1.37,0-1.87.78-1.87,2.09v2.29h-.85Z"/><path d="M393.75,424.9h.66v4.44h2.65v.56h-3.31Z"/><path d="M398.17,425.63h-.59v-.73h.59Zm-.59.65h.59v3.62h-.59Z"/><path d="M399.1,426.28h.56v.57h0a1.27,1.27,0,0,1,1.18-.65c.95,0,1.24.54,1.24,1.32v2.38h-.59v-2.45a.69.69,0,0,0-.74-.73,1,1,0,0,0-1.07,1.14v2h-.59Z"/><path d="M406.08,428.75a1.47,1.47,0,0,1-1.55,1.24c-1.16,0-1.7-.8-1.74-1.91a1.75,1.75,0,0,1,1.7-1.88c1.28,0,1.68,1.19,1.64,2.07h-2.71a1.07,1.07,0,0,0,1.13,1.19.88.88,0,0,0,.94-.71Zm-.58-1a1,1,0,0,0-1-1,1,1,0,0,0-1,1Z"/><path d="M408.79,424.9h1.72a2.13,2.13,0,0,1,2.4,2.38c0,1.68-.74,2.62-2.4,2.62h-1.72Zm.67,4.44h1.1c.46,0,1.68-.13,1.68-2,0-1.19-.44-1.91-1.66-1.91h-1.12Z"/><path d="M416.71,428.75a1.47,1.47,0,0,1-1.55,1.24c-1.16,0-1.7-.8-1.74-1.91a1.75,1.75,0,0,1,1.71-1.88c1.28,0,1.67,1.19,1.63,2.07h-2.71a1.07,1.07,0,0,0,1.13,1.19.87.87,0,0,0,.94-.71Zm-.58-1a1,1,0,0,0-2.08,0Z"/><path d="M417.74,428.76c0,.53.49.7,1,.7s.87-.08.87-.54-.59-.54-1.18-.67-1.19-.33-1.19-1,.73-1,1.36-1c.8,0,1.43.25,1.48,1.13h-.59c-.05-.46-.45-.61-.84-.61s-.77.1-.77.46.63.5,1.18.63,1.18.33,1.18,1c0,.87-.8,1.15-1.54,1.15s-1.5-.33-1.53-1.23Z"/><path d="M423.34,427.44a.85.85,0,0,0-.9-.72c-.86,0-1.13.68-1.13,1.42s.3,1.32,1.06,1.32a.94.94,0,0,0,1-.88h.6a1.5,1.5,0,0,1-1.59,1.41,1.65,1.65,0,0,1-1.7-1.85,1.7,1.7,0,0,1,1.71-1.94,1.38,1.38,0,0,1,1.56,1.24Z"/><path d="M424.62,426.28h.56V427h0a1.32,1.32,0,0,1,1.33-.84v.63c-1,0-1.31.54-1.31,1.46v1.61h-.59Z"/><path d="M427.6,425.63H427v-.73h.6Zm-.6.65h.6v3.62H427Z"/><path d="M428.54,426.28h.6v.49h0a1.22,1.22,0,0,1,1.16-.57,1.91,1.91,0,0,1,0,3.79,1.39,1.39,0,0,1-1.17-.57h0v1.87h-.6Zm1.68.44c-.79,0-1.1.69-1.1,1.37s.32,1.37,1.14,1.37,1.08-.69,1.08-1.4S431,426.72,430.22,426.72Z"/><path d="M433.5,426.28h.72v.53h-.72v2.24c0,.28.08.33.45.33h.27v.52h-.45c-.62,0-.86-.12-.86-.79v-2.3h-.62v-.53h.62V425.2h.59Z"/><path d="M435.51,425.63h-.6v-.73h.6Zm-.6.65h.6v3.62h-.6Z"/><path d="M438,426.2a1.9,1.9,0,1,1-1.75,1.89A1.71,1.71,0,0,1,438,426.2Zm0,3.26c.63,0,1.13-.49,1.13-1.37s-.5-1.37-1.13-1.37-1.12.49-1.12,1.37S437.37,429.46,438,429.46Z"/><path d="M440.45,426.28H441v.57h0a1.28,1.28,0,0,1,1.18-.65c.95,0,1.25.54,1.25,1.32v2.38h-.6v-2.45a.68.68,0,0,0-.73-.73,1,1,0,0,0-1.07,1.14v2h-.6Z"/><path d="M486,367.6h-1.59v-1.11h1.75l.34-2.46H484.8v-1.11h1.82l.47-3.35h1.13l-.47,3.35h2l.47-3.35h1.13l-.47,3.35h1.45V364h-1.6l-.34,2.46h1.48v1.11h-1.65l-.47,3.37h-1.13l.47-3.37h-2l-.47,3.37h-1.13ZM487.6,364l-.34,2.46h2l.34-2.46Z"/><path d="M494.28,369.15h1.81v1.66a2.43,2.43,0,0,1-1.8,2.56v-.81a1.56,1.56,0,0,0,.95-1.59h-1Z"/><path d="M504.16,367.6h-1.58v-1.11h1.75l.34-2.46H503v-1.11h1.82l.47-3.35h1.13l-.48,3.35h2l.48-3.35h1.13l-.48,3.35h1.46V364H509l-.34,2.46h1.49v1.11h-1.65L508,371h-1.13l.48-3.37h-2l-.47,3.37h-1.13ZM505.8,364l-.35,2.46h2l.35-2.46Z"/><path d="M512.47,369.15h1.82v1.66a2.43,2.43,0,0,1-1.8,2.56v-.81a1.58,1.58,0,0,0,1-1.59h-1Z"/><path d="M522.36,367.6h-1.59v-1.11h1.75l.34-2.46H521.2v-1.11H523l.48-3.35h1.12l-.47,3.35h2l.47-3.35h1.13l-.47,3.35h1.45V364h-1.6l-.34,2.46h1.48v1.11h-1.65l-.47,3.37H525l.47-3.37h-2L523,371h-1.13ZM524,364l-.34,2.46h2L526,364Z"/><path d="M486,426.53h-1.59v-1.11h1.75l.34-2.45H484.8v-1.12h1.82l.47-3.35h1.13l-.47,3.35h2l.47-3.35h1.13l-.47,3.35h1.45V423h-1.6l-.34,2.45h1.48v1.11h-1.65l-.47,3.37h-1.13l.47-3.37h-2l-.47,3.37h-1.13ZM487.6,423l-.34,2.45h2l.34-2.45Z"/><path d="M494.28,428.09h1.81v1.65a2.44,2.44,0,0,1-1.8,2.57v-.82a1.56,1.56,0,0,0,.95-1.59h-1Z"/><path d="M504.16,426.53h-1.58v-1.11h1.75l.34-2.45H503v-1.12h1.82l.47-3.35h1.13l-.48,3.35h2l.48-3.35h1.13l-.48,3.35h1.46V423H509l-.34,2.45h1.49v1.11h-1.65L508,429.9h-1.13l.48-3.37h-2l-.47,3.37h-1.13ZM505.8,423l-.35,2.45h2l.35-2.45Z"/><path d="M512.47,428.09h1.82v1.65a2.44,2.44,0,0,1-1.8,2.57v-.82a1.58,1.58,0,0,0,1-1.59h-1Z"/><path d="M522.36,426.53h-1.59v-1.11h1.75l.34-2.45H521.2v-1.12H523l.48-3.35h1.12l-.47,3.35h2l.47-3.35h1.13l-.47,3.35h1.45V423h-1.6l-.34,2.45h1.48v1.11h-1.65l-.47,3.37H525l.47-3.37h-2L523,429.9h-1.13ZM524,423l-.34,2.45h2L526,423Z"/><rect class="cls-6" x="344.38" y="220.27" width="20.1" height="3.28"/><rect class="cls-6" x="344.38" y="226.03" width="20.1" height="3.28"/><rect class="cls-6" x="344.38" y="231.78" width="20.1" height="3.28"/><rect class="cls-5" x="344.38" y="331.72" width="197.13" height="51.27"/><rect class="cls-5" x="344.38" y="389.19" width="197.13" height="51.27"/><rect class="cls-7" x="354.43" y="342.18" width="30.15" height="30.15"/><rect class="cls-7" x="354.43" y="399.75" width="30.15" height="30.15"/><path d="M394,461.71h.95V468h3.78v.8H394Z"/><path d="M400.3,462.74h-.85v-1h.85Zm-.85.93h.85v5.17h-.85Z"/><path d="M401.62,463.67h.8v.82h0a1.8,1.8,0,0,1,1.68-.94c1.36,0,1.78.78,1.78,1.89v3.4h-.85v-3.5a1,1,0,0,0-1.05-1,1.45,1.45,0,0,0-1.53,1.62v2.92h-.85Z"/><path d="M411.59,467.2a2.08,2.08,0,0,1-2.21,1.76c-1.65,0-2.43-1.14-2.48-2.72a2.49,2.49,0,0,1,2.43-2.69c1.83,0,2.39,1.71,2.34,3H407.8a1.52,1.52,0,0,0,1.61,1.7,1.25,1.25,0,0,0,1.34-1Zm-.82-1.44a1.49,1.49,0,0,0-1.49-1.46,1.47,1.47,0,0,0-1.48,1.46Z"/><path d="M394,470.71h1l3.76,5.78h0v-5.78h.9v7.13h-1l-3.73-5.73h0v5.73H394Z"/><path d="M405.34,477.84h-.8V477h0a1.8,1.8,0,0,1-1.68.94c-1.36,0-1.78-.78-1.78-1.89v-3.4h.85v3.5a1,1,0,0,0,1,1,1.45,1.45,0,0,0,1.53-1.62v-2.92h.85Z"/><path d="M406.62,472.67h.8v.76h0a1.91,1.91,0,0,1,1.67-.88,1.37,1.37,0,0,1,1.42.88,1.91,1.91,0,0,1,1.62-.88c1,0,1.72.43,1.72,1.5v3.79H413v-3.39c0-.64-.17-1.15-1-1.15a1.25,1.25,0,0,0-1.35,1.32v3.22h-.85v-3.39c0-.67-.21-1.15-1-1.15a1.39,1.39,0,0,0-1.38,1.32v3.22h-.85Z"/><path d="M415.18,470.71H416v2.66h0a1.74,1.74,0,0,1,1.65-.82,2.42,2.42,0,0,1,2.38,2.72c0,1.46-.78,2.69-2.36,2.69a2,2,0,0,1-1.67-.81h0v.69h-.85Zm2.4,2.59c-1.14,0-1.58,1-1.58,1.95s.46,2,1.63,2,1.55-1,1.55-2S418.68,473.3,417.58,473.3Z"/><path d="M425.49,476.2a2.08,2.08,0,0,1-2.21,1.76c-1.65,0-2.43-1.14-2.48-2.72a2.49,2.49,0,0,1,2.43-2.69c1.83,0,2.39,1.71,2.34,3H421.7a1.52,1.52,0,0,0,1.61,1.7,1.25,1.25,0,0,0,1.34-1Zm-.82-1.44a1.49,1.49,0,0,0-1.49-1.46,1.47,1.47,0,0,0-1.48,1.46Z"/><path d="M426.42,472.67h.8v1.09h0a1.88,1.88,0,0,1,1.9-1.21v.9c-1.37,0-1.87.78-1.87,2.09v2.3h-.85Z"/><path d="M393.75,482.51h.66V487h2.65v.56h-3.31Z"/><path d="M398.17,483.24h-.59v-.73h.59Zm-.59.65h.59v3.62h-.59Z"/><path d="M399.1,483.89h.56v.57h0a1.26,1.26,0,0,1,1.18-.66c.95,0,1.24.55,1.24,1.33v2.38h-.59v-2.45a.69.69,0,0,0-.74-.73,1,1,0,0,0-1.07,1.13v2.05h-.59Z"/><path d="M406.08,486.36a1.46,1.46,0,0,1-1.55,1.23c-1.16,0-1.7-.8-1.74-1.9a1.75,1.75,0,0,1,1.7-1.89c1.28,0,1.68,1.2,1.64,2.08h-2.71a1.07,1.07,0,0,0,1.13,1.19.88.88,0,0,0,.94-.71Zm-.58-1a1,1,0,0,0-2.08,0Z"/><path d="M408.79,482.51h1.72a2.13,2.13,0,0,1,2.4,2.38c0,1.67-.74,2.62-2.4,2.62h-1.72Zm.67,4.44h1.1c.46,0,1.68-.13,1.68-2,0-1.19-.44-1.91-1.66-1.91h-1.12Z"/><path d="M416.71,486.36a1.46,1.46,0,0,1-1.55,1.23c-1.16,0-1.7-.8-1.74-1.9a1.75,1.75,0,0,1,1.71-1.89c1.28,0,1.67,1.2,1.63,2.08h-2.71a1.07,1.07,0,0,0,1.13,1.19.87.87,0,0,0,.94-.71Zm-.58-1a1,1,0,0,0-1-1,1,1,0,0,0-1,1Z"/><path d="M417.74,486.37c0,.53.49.7,1,.7s.87-.09.87-.54-.59-.54-1.18-.68-1.19-.32-1.19-1,.73-1,1.36-1c.8,0,1.43.25,1.48,1.14h-.59c-.05-.46-.45-.61-.84-.61s-.77.1-.77.46.63.5,1.18.63,1.18.33,1.18,1c0,.86-.8,1.14-1.54,1.14s-1.5-.33-1.53-1.22Z"/><path d="M423.34,485.05a.84.84,0,0,0-.9-.72c-.86,0-1.13.68-1.13,1.41s.3,1.33,1.06,1.33a.94.94,0,0,0,1-.89h.6a1.49,1.49,0,0,1-1.59,1.41,1.65,1.65,0,0,1-1.7-1.85,1.71,1.71,0,0,1,1.71-1.94,1.39,1.39,0,0,1,1.56,1.25Z"/><path d="M424.62,483.89h.56v.76h0a1.33,1.33,0,0,1,1.33-.85v.63c-1,0-1.31.55-1.31,1.47v1.61h-.59Z"/><path d="M427.6,483.24H427v-.73h.6Zm-.6.65h.6v3.62H427Z"/><path d="M428.54,483.89h.6v.49h0a1.23,1.23,0,0,1,1.16-.58,1.71,1.71,0,0,1,1.67,1.91,1.67,1.67,0,0,1-1.66,1.88,1.39,1.39,0,0,1-1.17-.57h0v1.87h-.6Zm1.68.44c-.79,0-1.1.68-1.1,1.36s.32,1.38,1.14,1.38,1.08-.7,1.08-1.4S431,484.33,430.22,484.33Z"/><path d="M433.5,483.89h.72v.52h-.72v2.25c0,.27.08.32.45.32h.27v.53h-.45c-.62,0-.86-.13-.86-.79v-2.31h-.62v-.52h.62V482.8h.59Z"/><path d="M435.51,483.24h-.6v-.73h.6Zm-.6.65h.6v3.62h-.6Z"/><path d="M438,483.8a1.9,1.9,0,1,1-1.75,1.9A1.72,1.72,0,0,1,438,483.8Zm0,3.27c.63,0,1.13-.49,1.13-1.37s-.5-1.37-1.13-1.37-1.12.49-1.12,1.37S437.37,487.07,438,487.07Z"/><path d="M440.45,483.89H441v.57h0a1.27,1.27,0,0,1,1.18-.66c.95,0,1.25.55,1.25,1.33v2.38h-.6v-2.45a.68.68,0,0,0-.73-.73,1,1,0,0,0-1.07,1.13v2.05h-.6Z"/><path d="M486,484.14h-1.59V483h1.75l.34-2.46H484.8v-1.11h1.82l.47-3.35h1.13l-.47,3.35h2l.47-3.35h1.13l-.47,3.35h1.45v1.11h-1.6l-.34,2.46h1.48v1.11h-1.65l-.47,3.37h-1.13l.47-3.37h-2l-.47,3.37h-1.13Zm1.63-3.57-.34,2.46h2l.34-2.46Z"/><path d="M494.28,485.69h1.81v1.65a2.43,2.43,0,0,1-1.8,2.57v-.82a1.54,1.54,0,0,0,.95-1.58h-1Z"/><path d="M504.16,484.14h-1.58V483h1.75l.34-2.46H503v-1.11h1.82l.47-3.35h1.13l-.48,3.35h2l.48-3.35h1.13l-.48,3.35h1.46v1.11H509l-.34,2.46h1.49v1.11h-1.65l-.48,3.37h-1.13l.48-3.37h-2l-.47,3.37h-1.13Zm1.64-3.57-.35,2.46h2l.35-2.46Z"/><path d="M512.47,485.69h1.82v1.65a2.43,2.43,0,0,1-1.8,2.57v-.82a1.56,1.56,0,0,0,1-1.58h-1Z"/><path d="M522.36,484.14h-1.59V483h1.75l.34-2.46H521.2v-1.11H523l.48-3.35h1.12l-.47,3.35h2l.47-3.35h1.13l-.47,3.35h1.45v1.11h-1.6l-.34,2.46h1.48v1.11h-1.65l-.47,3.37H525l.47-3.37h-2l-.48,3.37h-1.13Zm1.63-3.57-.34,2.46h2l.34-2.46Z"/><rect class="cls-5" x="344.38" y="446.8" width="197.13" height="51.27"/><rect class="cls-7" x="354.43" y="457.35" width="30.15" height="30.15"/><path d="M394,518.24h.95v6.34h3.78v.8H394Z"/><path d="M400.3,519.28h-.85v-1h.85Zm-.85.93h.85v5.17h-.85Z"/><path d="M401.62,520.21h.8V521h0a1.8,1.8,0,0,1,1.68-.94c1.36,0,1.78.78,1.78,1.89v3.4h-.85v-3.5a1,1,0,0,0-1.05-1,1.45,1.45,0,0,0-1.53,1.62v2.92h-.85Z"/><path d="M411.59,523.74a2.08,2.08,0,0,1-2.21,1.76c-1.65,0-2.43-1.14-2.48-2.72a2.49,2.49,0,0,1,2.43-2.69c1.83,0,2.39,1.71,2.34,3H407.8a1.52,1.52,0,0,0,1.61,1.7,1.25,1.25,0,0,0,1.34-1Zm-.82-1.44a1.49,1.49,0,0,0-1.49-1.46,1.47,1.47,0,0,0-1.48,1.46Z"/><path d="M394,527.24h1l3.76,5.79h0v-5.79h.9v7.14h-1l-3.73-5.73h0v5.73H394Z"/><path d="M405.34,534.38h-.8v-.82h0a1.8,1.8,0,0,1-1.68.94c-1.36,0-1.78-.78-1.78-1.89v-3.4h.85v3.5a1,1,0,0,0,1,1,1.45,1.45,0,0,0,1.53-1.62v-2.92h.85Z"/><path d="M406.62,529.21h.8V530h0a1.91,1.91,0,0,1,1.67-.88,1.37,1.37,0,0,1,1.42.88,1.91,1.91,0,0,1,1.62-.88c1,0,1.72.43,1.72,1.5v3.79H413V531c0-.64-.17-1.15-1-1.15a1.25,1.25,0,0,0-1.35,1.32v3.22h-.85V531c0-.67-.21-1.15-1-1.15a1.39,1.39,0,0,0-1.38,1.32v3.22h-.85Z"/><path d="M415.18,527.24H416v2.67h0a1.74,1.74,0,0,1,1.65-.82,2.42,2.42,0,0,1,2.38,2.72c0,1.46-.78,2.69-2.36,2.69a2,2,0,0,1-1.67-.81h0v.69h-.85Zm2.4,2.6c-1.14,0-1.58,1-1.58,1.95s.46,2,1.63,2,1.55-1,1.55-2S418.68,529.84,417.58,529.84Z"/><path d="M425.49,532.74a2.08,2.08,0,0,1-2.21,1.76c-1.65,0-2.43-1.14-2.48-2.72a2.49,2.49,0,0,1,2.43-2.69c1.83,0,2.39,1.71,2.34,3H421.7a1.52,1.52,0,0,0,1.61,1.7,1.25,1.25,0,0,0,1.34-1Zm-.82-1.44a1.49,1.49,0,0,0-1.49-1.46,1.47,1.47,0,0,0-1.48,1.46Z"/><path d="M426.42,529.21h.8v1.09h0a1.88,1.88,0,0,1,1.9-1.21v.9c-1.37,0-1.87.78-1.87,2.09v2.3h-.85Z"/><path d="M393.75,539h.66v4.45h2.65v.56h-3.31Z"/><path d="M398.17,539.77h-.59V539h.59Zm-.59.65h.59v3.63h-.59Z"/><path d="M399.1,540.42h.56V541h0a1.26,1.26,0,0,1,1.18-.66c.95,0,1.24.55,1.24,1.33v2.38h-.59v-2.46a.68.68,0,0,0-.74-.72,1,1,0,0,0-1.07,1.13v2h-.59Z"/><path d="M406.08,542.9a1.46,1.46,0,0,1-1.55,1.23c-1.16,0-1.7-.8-1.74-1.91a1.75,1.75,0,0,1,1.7-1.88,1.77,1.77,0,0,1,1.64,2.07h-2.71a1.07,1.07,0,0,0,1.13,1.19.87.87,0,0,0,.94-.7Zm-.58-1a1,1,0,0,0-1-1,1,1,0,0,0-1,1Z"/><path d="M408.79,539h1.72a2.13,2.13,0,0,1,2.4,2.39c0,1.67-.74,2.62-2.4,2.62h-1.72Zm.67,4.45h1.1c.46,0,1.68-.13,1.68-2,0-1.19-.44-1.91-1.66-1.91h-1.12Z"/><path d="M416.71,542.9a1.46,1.46,0,0,1-1.55,1.23c-1.16,0-1.7-.8-1.74-1.91a1.75,1.75,0,0,1,1.71-1.88c1.28,0,1.67,1.2,1.63,2.07h-2.71a1.07,1.07,0,0,0,1.13,1.19.86.86,0,0,0,.94-.7Zm-.58-1a1,1,0,0,0-2.08,0Z"/><path d="M417.74,542.9c0,.54.49.7,1,.7s.87-.08.87-.53-.59-.54-1.18-.68-1.19-.33-1.19-1,.73-1,1.36-1c.8,0,1.43.25,1.48,1.14h-.59c-.05-.47-.45-.61-.84-.61s-.77.09-.77.46.63.5,1.18.63,1.18.33,1.18,1c0,.86-.8,1.14-1.54,1.14s-1.5-.33-1.53-1.23Z"/><path d="M423.34,541.59a.84.84,0,0,0-.9-.72c-.86,0-1.13.68-1.13,1.41s.3,1.32,1.06,1.32a.94.94,0,0,0,1-.88h.6a1.5,1.5,0,0,1-1.59,1.41,1.65,1.65,0,0,1-1.7-1.85,1.71,1.71,0,0,1,1.71-1.94,1.39,1.39,0,0,1,1.56,1.25Z"/><path d="M424.62,540.42h.56v.77h0a1.33,1.33,0,0,1,1.33-.85V541c-1,0-1.31.55-1.31,1.46v1.62h-.59Z"/><path d="M427.6,539.77H427V539h.6Zm-.6.65h.6v3.63H427Z"/><path d="M428.54,540.42h.6v.5h0a1.23,1.23,0,0,1,1.16-.58,1.7,1.7,0,0,1,1.67,1.91,1.67,1.67,0,0,1-1.66,1.88,1.39,1.39,0,0,1-1.17-.57h0v1.87h-.6Zm1.68.45c-.79,0-1.1.68-1.1,1.36s.32,1.37,1.14,1.37,1.08-.69,1.08-1.4S431,540.87,430.22,540.87Z"/><path d="M433.5,540.42h.72V541h-.72v2.25c0,.27.08.32.45.32h.27v.53h-.45c-.62,0-.86-.13-.86-.8V541h-.62v-.53h.62v-1.08h.59Z"/><path d="M435.51,539.77h-.6V539h.6Zm-.6.65h.6v3.63h-.6Z"/><path d="M438,540.34a1.9,1.9,0,1,1-1.75,1.9A1.72,1.72,0,0,1,438,540.34Zm0,3.26c.63,0,1.13-.49,1.13-1.36s-.5-1.37-1.13-1.37-1.12.49-1.12,1.37S437.37,543.6,438,543.6Z"/><path d="M440.45,540.42H441V541h0a1.27,1.27,0,0,1,1.18-.66c.95,0,1.25.55,1.25,1.33v2.38h-.6v-2.46a.67.67,0,0,0-.73-.72,1,1,0,0,0-1.07,1.13v2h-.6Z"/><path d="M486,540.68h-1.59v-1.12h1.75l.34-2.45H484.8V536h1.82l.47-3.36h1.13l-.47,3.36h2l.47-3.36h1.13l-.47,3.36h1.45v1.11h-1.6l-.34,2.45h1.48v1.12h-1.65l-.47,3.37h-1.13l.47-3.37h-2l-.47,3.37h-1.13Zm1.63-3.57-.34,2.45h2l.34-2.45Z"/><path d="M494.28,542.23h1.81v1.65a2.43,2.43,0,0,1-1.8,2.57v-.82a1.54,1.54,0,0,0,.95-1.58h-1Z"/><path d="M504.16,540.68h-1.58v-1.12h1.75l.34-2.45H503V536h1.82l.47-3.36h1.13l-.48,3.36h2l.48-3.36h1.13L509.1,536h1.46v1.11H509l-.34,2.45h1.49v1.12h-1.65l-.48,3.37h-1.13l.48-3.37h-2l-.47,3.37h-1.13Zm1.64-3.57-.35,2.45h2l.35-2.45Z"/><path d="M512.47,542.23h1.82v1.65a2.43,2.43,0,0,1-1.8,2.57v-.82a1.56,1.56,0,0,0,1-1.58h-1Z"/><path d="M522.36,540.68h-1.59v-1.12h1.75l.34-2.45H521.2V536H523l.48-3.36h1.12l-.47,3.36h2l.47-3.36h1.13L527.3,536h1.45v1.11h-1.6l-.34,2.45h1.48v1.12h-1.65l-.47,3.37H525l.47-3.37h-2l-.48,3.37h-1.13Zm1.63-3.57-.34,2.45h2l.34-2.45Z"/><rect class="cls-5" x="344.38" y="503.33" width="197.13" height="51.27"/><rect class="cls-7" x="354.43" y="513.89" width="30.15" height="30.15"/><rect class="cls-8" x="344.38" y="288.77" width="98.56" height="19.69"/><rect class="cls-5" x="442.95" y="288.77" width="98.56" height="19.69"/><path class="cls-3" d="M372.93,295.73a3.38,3.38,0,1,1-3.08,3.36A3.09,3.09,0,0,1,372.93,295.73Zm0,6c1.57,0,2.22-1.35,2.22-2.65s-.65-2.64-2.22-2.64-2.22,1.35-2.22,2.64S371.36,301.74,372.93,301.74Z"/><path class="cls-3" d="M380.78,302.31h-.72v-.74h0a1.61,1.61,0,0,1-1.51.85c-1.23,0-1.6-.71-1.6-1.71v-3.06h.76v3.15a.88.88,0,0,0,.95.94,1.31,1.31,0,0,0,1.37-1.46v-2.63h.77Z"/><path class="cls-3" d="M383,297.65h.93v.68H383v2.89c0,.35.1.41.58.41h.35v.68h-.59c-.79,0-1.1-.16-1.1-1v-3h-.8v-.68h.8v-1.39H383Z"/><path class="cls-3" d="M384.79,295.88h.77v2.4h0a1.56,1.56,0,0,1,1.48-.73A2.18,2.18,0,0,1,389.2,300a2.15,2.15,0,0,1-2.12,2.42,1.77,1.77,0,0,1-1.5-.73h0v.62h-.77Zm2.16,2.34c-1,0-1.42.88-1.42,1.76s.41,1.76,1.47,1.76,1.39-.89,1.39-1.8S387.94,298.22,387,298.22Z"/><path class="cls-3" d="M392.11,297.55a2.44,2.44,0,1,1-2.26,2.44A2.21,2.21,0,0,1,392.11,297.55Zm0,4.19c.8,0,1.45-.63,1.45-1.75s-.65-1.77-1.45-1.77-1.45.63-1.45,1.77S391.31,301.74,392.11,301.74Z"/><path class="cls-3" d="M399.12,302.31h-.72v-.74h0a1.61,1.61,0,0,1-1.51.85c-1.22,0-1.6-.71-1.6-1.71v-3.06H396v3.15a.88.88,0,0,0,1,.94,1.31,1.31,0,0,0,1.38-1.46v-2.63h.76Z"/><path class="cls-3" d="M400.27,297.65H401v.74h0a1.62,1.62,0,0,1,1.51-.84c1.23,0,1.61.7,1.61,1.7v3.06h-.77v-3.15a.88.88,0,0,0-.95-.94,1.31,1.31,0,0,0-1.37,1.46v2.63h-.77Z"/><path class="cls-3" d="M409.43,302.31h-.76v-.63h0a1.57,1.57,0,0,1-1.48.74A2.18,2.18,0,0,1,405,300a2.15,2.15,0,0,1,2.13-2.42,1.77,1.77,0,0,1,1.5.73h0v-2.4h.76Zm-2.16-.57c1,0,1.43-.88,1.43-1.75s-.42-1.77-1.47-1.77-1.4.89-1.4,1.8S406.28,301.74,407.27,301.74Z"/><path d="M478.07,295.88h.85v6.43h-.85Z"/><path d="M480.24,297.65H481v.74h0a1.61,1.61,0,0,1,1.51-.84c1.22,0,1.6.7,1.6,1.7v3.06h-.76v-3.15a.88.88,0,0,0-.95-.94,1.31,1.31,0,0,0-1.38,1.46v2.63h-.76Z"/><path d="M485.27,295.88H486v2.4h0a1.57,1.57,0,0,1,1.49-.73,2.18,2.18,0,0,1,2.14,2.45,2.15,2.15,0,0,1-2.12,2.42,1.79,1.79,0,0,1-1.51-.73h0v.62h-.76Zm2.16,2.34c-1,0-1.42.88-1.42,1.76s.41,1.76,1.46,1.76,1.4-.89,1.4-1.8S488.42,298.22,487.43,298.22Z"/><path d="M492.59,297.55a2.44,2.44,0,1,1-2.26,2.44A2.21,2.21,0,0,1,492.59,297.55Zm0,4.19c.8,0,1.45-.63,1.45-1.75s-.65-1.77-1.45-1.77-1.45.63-1.45,1.77S491.79,301.74,492.59,301.74Z"/><path d="M499.6,302.31h-.72v-.74h0a1.61,1.61,0,0,1-1.51.85c-1.23,0-1.6-.71-1.6-1.71v-3.06h.76v3.15a.88.88,0,0,0,.95.94,1.31,1.31,0,0,0,1.37-1.46v-2.63h.77Z"/><path d="M500.75,297.65h.72v.74h0a1.61,1.61,0,0,1,1.51-.84c1.22,0,1.6.7,1.6,1.7v3.06h-.76v-3.15a.88.88,0,0,0-.95-.94,1.31,1.31,0,0,0-1.38,1.46v2.63h-.76Z"/><path d="M509.91,302.31h-.76v-.63h0a1.58,1.58,0,0,1-1.49.74A2.18,2.18,0,0,1,505.5,300a2.15,2.15,0,0,1,2.13-2.42,1.78,1.78,0,0,1,1.5.73h0v-2.4h.76Zm-2.16-.57c1,0,1.42-.88,1.42-1.75s-.41-1.77-1.46-1.77-1.4.89-1.4,1.8S506.76,301.74,507.75,301.74Z"/><g class="cls-9"><path d="M394,574.91h.95v6.34h3.78v.8H394Z"/><path d="M400.3,576h-.85v-1h.85Zm-.85.93h.85v5.17h-.85Z"/><path d="M401.62,576.88h.8v.82h0a1.8,1.8,0,0,1,1.68-.94c1.36,0,1.78.78,1.78,1.89v3.4h-.85v-3.5a1,1,0,0,0-1.05-1,1.45,1.45,0,0,0-1.53,1.62v2.92h-.85Z"/><path d="M411.59,580.41a2.08,2.08,0,0,1-2.21,1.76c-1.65,0-2.43-1.14-2.48-2.72a2.49,2.49,0,0,1,2.43-2.69c1.83,0,2.39,1.71,2.34,3H407.8a1.52,1.52,0,0,0,1.61,1.7,1.25,1.25,0,0,0,1.34-1Zm-.82-1.44a1.49,1.49,0,0,0-1.49-1.46A1.47,1.47,0,0,0,407.8,579Z"/><path d="M394,583.91h1l3.76,5.79h0v-5.79h.9v7.14h-1l-3.73-5.73h0v5.73H394Z"/><path d="M405.34,591.05h-.8v-.82h0a1.8,1.8,0,0,1-1.68.94c-1.36,0-1.78-.78-1.78-1.89v-3.4h.85v3.5a1,1,0,0,0,1,1,1.45,1.45,0,0,0,1.53-1.62v-2.92h.85Z"/><path d="M406.62,585.88h.8v.76h0a1.91,1.91,0,0,1,1.67-.88,1.37,1.37,0,0,1,1.42.88,1.91,1.91,0,0,1,1.62-.88c1,0,1.72.43,1.72,1.5v3.79H413v-3.39c0-.64-.17-1.15-1-1.15a1.25,1.25,0,0,0-1.35,1.32v3.22h-.85v-3.39c0-.67-.21-1.15-1-1.15a1.39,1.39,0,0,0-1.38,1.32v3.22h-.85Z"/><path d="M415.18,583.91H416v2.67h0a1.74,1.74,0,0,1,1.65-.82,2.42,2.42,0,0,1,2.38,2.72c0,1.46-.78,2.69-2.36,2.69a2,2,0,0,1-1.67-.81h0v.69h-.85Zm2.4,2.6c-1.14,0-1.58,1-1.58,2s.46,2,1.63,2,1.55-1,1.55-2S418.68,586.51,417.58,586.51Z"/><path d="M425.49,589.41a2.08,2.08,0,0,1-2.21,1.76c-1.65,0-2.43-1.14-2.48-2.72a2.49,2.49,0,0,1,2.43-2.69c1.83,0,2.39,1.71,2.34,3H421.7a1.52,1.52,0,0,0,1.61,1.7,1.25,1.25,0,0,0,1.34-1Zm-.82-1.44a1.49,1.49,0,0,0-1.49-1.46A1.47,1.47,0,0,0,421.7,588Z"/><path d="M426.42,585.88h.8V587h0a1.88,1.88,0,0,1,1.9-1.21v.9c-1.37,0-1.87.78-1.87,2.09v2.3h-.85Z"/><path d="M393.75,595.71h.66v4.44h2.65v.56h-3.31Z"/><path d="M398.17,596.44h-.59v-.73h.59Zm-.59.65h.59v3.62h-.59Z"/><path d="M399.1,597.09h.56v.58h0a1.26,1.26,0,0,1,1.18-.66c.95,0,1.24.54,1.24,1.32v2.38h-.59v-2.45a.69.69,0,0,0-.74-.73,1,1,0,0,0-1.07,1.14v2h-.59Z"/><path d="M406.08,599.56a1.47,1.47,0,0,1-1.55,1.24c-1.16,0-1.7-.8-1.74-1.91a1.75,1.75,0,0,1,1.7-1.88,1.77,1.77,0,0,1,1.64,2.07h-2.71a1.07,1.07,0,0,0,1.13,1.19.88.88,0,0,0,.94-.71Zm-.58-1a1,1,0,0,0-1-1,1,1,0,0,0-1,1Z"/><path d="M408.79,595.71h1.72a2.13,2.13,0,0,1,2.4,2.38c0,1.68-.74,2.62-2.4,2.62h-1.72Zm.67,4.44h1.1c.46,0,1.68-.12,1.68-2,0-1.19-.44-1.91-1.66-1.91h-1.12Z"/><path d="M416.71,599.56a1.47,1.47,0,0,1-1.55,1.24c-1.16,0-1.7-.8-1.74-1.91a1.75,1.75,0,0,1,1.71-1.88c1.28,0,1.67,1.2,1.63,2.07h-2.71a1.07,1.07,0,0,0,1.13,1.19.87.87,0,0,0,.94-.71Zm-.58-1a1,1,0,0,0-2.08,0Z"/><path d="M417.74,599.57c0,.53.49.7,1,.7s.87-.08.87-.54-.59-.54-1.18-.67-1.19-.33-1.19-1,.73-1,1.36-1c.8,0,1.43.25,1.48,1.13h-.59c-.05-.46-.45-.61-.84-.61s-.77.1-.77.47.63.49,1.18.63,1.18.33,1.18,1c0,.86-.8,1.14-1.54,1.14s-1.5-.33-1.53-1.23Z"/><path d="M423.34,598.25a.85.85,0,0,0-.9-.72c-.86,0-1.13.68-1.13,1.42s.3,1.32,1.06,1.32a.94.94,0,0,0,1-.88h.6a1.5,1.5,0,0,1-1.59,1.41,1.65,1.65,0,0,1-1.7-1.85,1.7,1.7,0,0,1,1.71-1.94,1.38,1.38,0,0,1,1.56,1.24Z"/><path d="M424.62,597.09h.56v.77h0a1.31,1.31,0,0,1,1.33-.85v.63c-1,0-1.31.54-1.31,1.46v1.61h-.59Z"/><path d="M427.6,596.44H427v-.73h.6Zm-.6.65h.6v3.62H427Z"/><path d="M428.54,597.09h.6v.49h0a1.22,1.22,0,0,1,1.16-.57,1.7,1.7,0,0,1,1.67,1.9,1.68,1.68,0,0,1-1.66,1.89,1.39,1.39,0,0,1-1.17-.57h0v1.87h-.6Zm1.68.44c-.79,0-1.1.69-1.1,1.37s.32,1.37,1.14,1.37,1.08-.69,1.08-1.4S431,597.53,430.22,597.53Z"/><path d="M433.5,597.09h.72v.53h-.72v2.25c0,.27.08.32.45.32h.27v.52h-.45c-.62,0-.86-.12-.86-.79v-2.3h-.62v-.53h.62V596h.59Z"/><path d="M435.51,596.44h-.6v-.73h.6Zm-.6.65h.6v3.62h-.6Z"/><path d="M438,597a1.9,1.9,0,1,1-1.75,1.9A1.72,1.72,0,0,1,438,597Zm0,3.26c.63,0,1.13-.49,1.13-1.36s-.5-1.38-1.13-1.38-1.12.49-1.12,1.38S437.37,600.27,438,600.27Z"/><path d="M440.45,597.09H441v.58h0a1.27,1.27,0,0,1,1.18-.66c.95,0,1.25.54,1.25,1.32v2.38h-.6v-2.45a.68.68,0,0,0-.73-.73,1,1,0,0,0-1.07,1.14v2h-.6Z"/><path d="M486,597.34h-1.59v-1.11h1.75l.34-2.45H484.8v-1.11h1.82l.47-3.36h1.13l-.47,3.36h2l.47-3.36h1.13l-.47,3.36h1.45v1.11h-1.6l-.34,2.45h1.48v1.11h-1.65l-.47,3.37h-1.13l.47-3.37h-2l-.47,3.37h-1.13Zm1.63-3.56-.34,2.45h2l.34-2.45Z"/><path d="M494.28,598.9h1.81v1.65a2.43,2.43,0,0,1-1.8,2.57v-.82a1.55,1.55,0,0,0,.95-1.59h-1Z"/><path d="M504.16,597.34h-1.58v-1.11h1.75l.34-2.45H503v-1.11h1.82l.47-3.36h1.13l-.48,3.36h2l.48-3.36h1.13l-.48,3.36h1.46v1.11H509l-.34,2.45h1.49v1.11h-1.65l-.48,3.37h-1.13l.48-3.37h-2l-.47,3.37h-1.13Zm1.64-3.56-.35,2.45h2l.35-2.45Z"/><path d="M512.47,598.9h1.82v1.65a2.43,2.43,0,0,1-1.8,2.57v-.82a1.57,1.57,0,0,0,1-1.59h-1Z"/><path d="M522.36,597.34h-1.59v-1.11h1.75l.34-2.45H521.2v-1.11H523l.48-3.36h1.12l-.47,3.36h2l.47-3.36h1.13l-.47,3.36h1.45v1.11h-1.6l-.34,2.45h1.48v1.11h-1.65l-.47,3.37H525l.47-3.37h-2l-.48,3.37h-1.13Zm1.63-3.56-.34,2.45h2l.34-2.45Z"/><rect class="cls-5" x="344.38" y="560" width="197.13" height="51.27"/><rect class="cls-7" x="354.43" y="570.56" width="30.15" height="30.15"/></g><rect class="cls-5" x="95.3" y="210.46" width="213.5" height="381.49"/><rect class="cls-5" x="95.3" y="210.46" width="213.5" height="34.41"/><path d="M184.34,222.15h1.33v4.3h5.26v-4.3h1.33v10h-1.33v-4.58h-5.26v4.58h-1.33Z"/><path d="M197.37,224.74c2.3,0,3.52,1.67,3.52,3.8s-1.22,3.78-3.52,3.78-3.52-1.66-3.52-3.78S195.07,224.74,197.37,224.74Zm0,6.53c1.25,0,2.26-1,2.26-2.73s-1-2.75-2.26-2.75-2.25,1-2.25,2.75S196.12,231.27,197.37,231.27Z"/><path d="M202.28,224.91h1.12V226h0a2.66,2.66,0,0,1,2.34-1.24,1.92,1.92,0,0,1,2,1.24,2.68,2.68,0,0,1,2.27-1.24c1.44,0,2.41.61,2.41,2.11v5.3h-1.19v-4.74c0-.9-.24-1.62-1.4-1.62a1.75,1.75,0,0,0-1.89,1.85v4.51h-1.19v-4.74c0-.94-.3-1.62-1.36-1.62a2,2,0,0,0-1.94,1.85v4.51h-1.19Z"/><path d="M220.4,229.86a2.92,2.92,0,0,1-3.09,2.46c-2.31,0-3.41-1.59-3.48-3.81a3.49,3.49,0,0,1,3.41-3.77c2.56,0,3.34,2.4,3.27,4.15h-5.42a2.14,2.14,0,0,0,2.26,2.38,1.74,1.74,0,0,0,1.88-1.41Zm-1.15-2a2.08,2.08,0,0,0-4.16,0Z"/><path d="M103.67,272.61h1l3.76,5.78h0v-5.78h.9v7.13h-1L104.59,274h0v5.72h-.9Z"/><path d="M115.17,278.11a2.08,2.08,0,0,1-2.21,1.75c-1.65,0-2.43-1.14-2.48-2.71a2.49,2.49,0,0,1,2.43-2.69c1.83,0,2.39,1.71,2.34,3h-3.87a1.52,1.52,0,0,0,1.61,1.69,1.25,1.25,0,0,0,1.34-1Zm-.82-1.44a1.49,1.49,0,0,0-1.49-1.46,1.47,1.47,0,0,0-1.48,1.46Z"/><path d="M120.71,279.72a1.15,1.15,0,0,1-.61.14c-.44,0-.72-.24-.72-.8a2.29,2.29,0,0,1-1.82.8c-.94,0-1.71-.42-1.71-1.44,0-1.17.87-1.42,1.75-1.59s1.74-.12,1.74-.76-.61-.86-1.15-.86c-.72,0-1.25.22-1.29,1h-.85c0-1.28,1-1.73,2.19-1.73.93,0,1.94.21,1.94,1.42v2.66c0,.39,0,.57.27.57a.73.73,0,0,0,.26-.05Zm-1.38-2.64a4.38,4.38,0,0,1-1.54.35c-.56.1-1,.3-1,.92s.48.76,1,.76c1.12,0,1.58-.69,1.58-1.16Z"/><path d="M121.47,274.58h.8v1.09h0a1.88,1.88,0,0,1,1.9-1.21v.9c-1.37,0-1.87.78-1.87,2.09v2.29h-.85Z"/><path d="M124.86,272.61h.85v2.67h0a1.74,1.74,0,0,1,1.65-.82,2.42,2.42,0,0,1,2.38,2.72,2.38,2.38,0,0,1-2.36,2.68,2,2,0,0,1-1.67-.81h0v.69h-.85Zm2.4,2.6c-1.14,0-1.58,1-1.58,2s.46,1.95,1.63,1.95,1.55-1,1.55-2S128.36,275.21,127.26,275.21Z"/><path d="M132.79,280.43c-.39,1-.74,1.38-1.5,1.38a1.69,1.69,0,0,1-.59-.09v-.78a1.74,1.74,0,0,0,.5.12.73.73,0,0,0,.7-.47l.35-.88-2.05-5.13h1l1.51,4.22h0l1.45-4.22h.9Z"/><path d="M140.3,273.41h-2.38v-.8h5.71v.8h-2.38v6.33h-.95Z"/><path d="M143.33,274.58h.8v1.09h0a1.88,1.88,0,0,1,1.9-1.21v.9c-1.37,0-1.87.78-1.87,2.09v2.29h-.85Z"/><path d="M151.27,279.72a1.15,1.15,0,0,1-.61.14c-.44,0-.72-.24-.72-.8a2.29,2.29,0,0,1-1.82.8c-.94,0-1.71-.42-1.71-1.44,0-1.17.87-1.42,1.75-1.59s1.74-.12,1.74-.76-.61-.86-1.15-.86c-.72,0-1.25.22-1.29,1h-.85c0-1.28,1-1.73,2.19-1.73.93,0,1.94.21,1.94,1.42v2.66c0,.39,0,.57.27.57a.73.73,0,0,0,.26-.05Zm-1.38-2.64a4.38,4.38,0,0,1-1.54.35c-.56.1-1,.3-1,.92s.48.76,1,.76c1.12,0,1.58-.69,1.58-1.16Z"/><path d="M152.06,274.58h.8v.82h0a1.8,1.8,0,0,1,1.68-.94c1.36,0,1.78.78,1.78,1.89v3.39h-.85v-3.49a1,1,0,0,0-1.05-1,1.45,1.45,0,0,0-1.53,1.62v2.91h-.85Z"/><path d="M158.14,278.12c0,.76.69,1,1.39,1,.53,0,1.25-.12,1.25-.77s-.84-.76-1.69-.95-1.69-.47-1.69-1.46,1-1.47,1.93-1.47c1.14,0,2,.36,2.12,1.62h-.85c-.06-.66-.64-.87-1.2-.87s-1.1.14-1.1.66.9.71,1.69.9,1.69.47,1.69,1.47c0,1.22-1.15,1.62-2.2,1.62s-2.14-.47-2.19-1.74Z"/><path d="M163.52,273.65h-.85v-1h.85Zm-.85.93h.85v5.16h-.85Z"/><path d="M166,274.58h1v.75h-1v3.21c0,.38.11.45.64.45h.39v.75h-.65c-.88,0-1.23-.18-1.23-1.12v-3.29h-.88v-.75h.88V273H166Z"/><rect class="cls-6" x="102.9" y="220.27" width="20.1" height="3.28"/><rect class="cls-6" x="102.9" y="226.03" width="20.1" height="3.28"/><rect class="cls-6" x="102.9" y="231.78" width="20.1" height="3.28"/><path d="M154.12,314.23h-2.37v-.8h5.7v.8h-2.38v6.34h-.95Z"/><path d="M157.16,315.4h.8v1.09h0a1.86,1.86,0,0,1,1.89-1.21v.9c-1.37,0-1.87.78-1.87,2.09v2.3h-.84Z"/><path d="M165.09,320.55a1.15,1.15,0,0,1-.61.14c-.44,0-.72-.24-.72-.8a2.29,2.29,0,0,1-1.81.8c-.95,0-1.71-.42-1.71-1.45s.87-1.42,1.74-1.59,1.74-.12,1.74-.76-.61-.86-1.15-.86c-.72,0-1.24.22-1.28,1h-.85c.05-1.28,1-1.73,2.18-1.73.93,0,1.94.21,1.94,1.42v2.66c0,.4,0,.58.27.58a.73.73,0,0,0,.26-.05Zm-1.38-2.65a4.38,4.38,0,0,1-1.54.35c-.55.1-1,.3-1,.93s.48.76,1,.76c1.12,0,1.58-.7,1.58-1.17Z"/><path d="M165.89,315.4h.8v.82h0a1.78,1.78,0,0,1,1.67-.94c1.36,0,1.78.78,1.78,1.89v3.4h-.85v-3.5a1,1,0,0,0-1.05-1,1.45,1.45,0,0,0-1.52,1.62v2.92h-.85Z"/><path d="M172,318.94c0,.76.69,1,1.39,1,.53,0,1.25-.12,1.25-.77s-.84-.77-1.69-1-1.68-.47-1.68-1.46,1-1.47,1.92-1.47c1.14,0,2,.36,2.12,1.62h-.85c-.06-.66-.64-.87-1.2-.87s-1.09.14-1.09.66.89.71,1.68.9,1.69.47,1.69,1.47c0,1.23-1.15,1.63-2.2,1.63s-2.13-.47-2.18-1.75Z"/><path d="M177.34,314.47h-.84v-1h.84Zm-.84.93h.84v5.17h-.84Z"/><path d="M179.84,315.4h1v.75h-1v3.21c0,.39.11.46.64.46h.39v.75h-.65c-.88,0-1.22-.18-1.22-1.13v-3.29h-.88v-.75H179v-1.55h.84Z"/><path d="M152.5,322.43h1l3.76,5.79h0v-5.79h.9v7.14h-1l-3.72-5.73h0v5.73h-.89Z"/><path d="M164.16,329.55a1.15,1.15,0,0,1-.61.14c-.44,0-.72-.24-.72-.8a2.29,2.29,0,0,1-1.82.8c-.94,0-1.71-.42-1.71-1.45s.87-1.42,1.75-1.59,1.74-.12,1.74-.76-.61-.86-1.15-.86c-.72,0-1.25.22-1.29,1h-.85c.05-1.28,1-1.73,2.19-1.73.93,0,1.94.21,1.94,1.42v2.66c0,.4,0,.58.27.58a.73.73,0,0,0,.26-.05Zm-1.38-2.65a4.38,4.38,0,0,1-1.54.35c-.56.1-1,.3-1,.93s.47.76,1,.76c1.12,0,1.58-.7,1.58-1.17Z"/><path d="M165,324.4h.79v.76h0a1.91,1.91,0,0,1,1.67-.88,1.37,1.37,0,0,1,1.42.88,1.91,1.91,0,0,1,1.62-.88c1,0,1.72.43,1.72,1.5v3.79h-.85v-3.39c0-.64-.17-1.15-1-1.15a1.25,1.25,0,0,0-1.35,1.32v3.22h-.85v-3.39c0-.67-.21-1.15-1-1.15a1.39,1.39,0,0,0-1.38,1.32v3.22H165Z"/><path d="M177.89,327.93a2.08,2.08,0,0,1-2.21,1.76c-1.64,0-2.42-1.14-2.47-2.72a2.48,2.48,0,0,1,2.42-2.69c1.83,0,2.39,1.71,2.34,3h-3.86a1.52,1.52,0,0,0,1.6,1.7,1.25,1.25,0,0,0,1.34-1Zm-.82-1.44a1.49,1.49,0,0,0-1.49-1.46,1.46,1.46,0,0,0-1.47,1.46Z"/><rect class="cls-5" x="102.9" y="288.77" width="197.13" height="51.27"/><rect class="cls-7" x="112.96" y="299.23" width="30.15" height="30.15"/><polyline class="cls-5" points="286.12 315.17 278.72 322.56 271.32 315.17"/><path d="M154.12,371.29h-2.37v-.8h5.7v.8h-2.38v6.34h-.95Z"/><path d="M157.16,372.46h.8v1.09h0a1.86,1.86,0,0,1,1.89-1.21v.9c-1.37,0-1.87.78-1.87,2.09v2.3h-.84Z"/><path d="M165.09,377.61a1.15,1.15,0,0,1-.61.14c-.44,0-.72-.25-.72-.8a2.29,2.29,0,0,1-1.81.8c-.95,0-1.71-.42-1.71-1.45s.87-1.42,1.74-1.59,1.74-.12,1.74-.76-.61-.86-1.15-.86c-.72,0-1.24.22-1.28,1h-.85c.05-1.28,1-1.73,2.18-1.73.93,0,1.94.21,1.94,1.42v2.66c0,.4,0,.58.27.58a.73.73,0,0,0,.26-.05ZM163.71,375a4.38,4.38,0,0,1-1.54.35c-.55.1-1,.3-1,.93s.48.76,1,.76c1.12,0,1.58-.7,1.58-1.17Z"/><path d="M165.89,372.46h.8v.82h0a1.78,1.78,0,0,1,1.67-.94c1.36,0,1.78.78,1.78,1.89v3.4h-.85v-3.5a1,1,0,0,0-1.05-1,1.45,1.45,0,0,0-1.52,1.62v2.92h-.85Z"/><path d="M172,376c0,.76.69,1,1.39,1,.53,0,1.25-.12,1.25-.77s-.84-.77-1.69-1-1.68-.47-1.68-1.46,1-1.47,1.92-1.47c1.14,0,2,.36,2.12,1.62h-.85c-.06-.66-.64-.87-1.2-.87s-1.09.14-1.09.66.89.71,1.68.9,1.69.47,1.69,1.47c0,1.22-1.15,1.63-2.2,1.63s-2.13-.47-2.18-1.75Z"/><path d="M177.34,371.53h-.84v-1h.84Zm-.84.93h.84v5.17h-.84Z"/><path d="M179.84,372.46h1v.75h-1v3.21c0,.39.11.46.64.46h.39v.75h-.65c-.88,0-1.22-.18-1.22-1.13v-3.29h-.88v-.75H179v-1.55h.84Z"/><path d="M152.5,379.49h1l3.76,5.79h0v-5.79h.9v7.14h-1l-3.72-5.73h0v5.73h-.89Z"/><path d="M164.16,386.61a1.15,1.15,0,0,1-.61.14c-.44,0-.72-.25-.72-.8a2.29,2.29,0,0,1-1.82.8c-.94,0-1.71-.42-1.71-1.45s.87-1.42,1.75-1.59,1.74-.12,1.74-.76-.61-.86-1.15-.86c-.72,0-1.25.22-1.29,1h-.85c.05-1.28,1-1.73,2.19-1.73.93,0,1.94.21,1.94,1.42v2.66c0,.4,0,.58.27.58a.73.73,0,0,0,.26-.05ZM162.78,384a4.38,4.38,0,0,1-1.54.35c-.56.1-1,.3-1,.93s.47.76,1,.76c1.12,0,1.58-.7,1.58-1.17Z"/><path d="M165,381.46h.79v.76h0a1.91,1.91,0,0,1,1.67-.88,1.37,1.37,0,0,1,1.42.88,1.91,1.91,0,0,1,1.62-.88c1,0,1.72.43,1.72,1.5v3.79h-.85v-3.39c0-.64-.17-1.15-1-1.15a1.25,1.25,0,0,0-1.35,1.32v3.22h-.85v-3.39c0-.67-.21-1.15-1-1.15a1.39,1.39,0,0,0-1.38,1.32v3.22H165Z"/><path d="M177.89,385a2.08,2.08,0,0,1-2.21,1.76c-1.64,0-2.42-1.14-2.47-2.72a2.48,2.48,0,0,1,2.42-2.69c1.83,0,2.39,1.71,2.34,3h-3.86a1.52,1.52,0,0,0,1.6,1.7,1.25,1.25,0,0,0,1.34-1Zm-.82-1.44a1.49,1.49,0,0,0-1.49-1.46,1.46,1.46,0,0,0-1.47,1.46Z"/><rect class="cls-5" x="102.9" y="345.83" width="197.13" height="51.27"/><rect class="cls-7" x="112.96" y="356.29" width="30.15" height="30.15"/><polyline class="cls-5" points="286.12 372.23 278.72 379.63 271.32 372.23"/><path d="M154.12,428.72h-2.37v-.79h5.7v.79h-2.38v6.34h-.95Z"/><path d="M157.16,429.89h.8V431h0a1.86,1.86,0,0,1,1.89-1.21v.9c-1.37,0-1.87.78-1.87,2.09v2.3h-.84Z"/><path d="M165.09,435a1.15,1.15,0,0,1-.61.14c-.44,0-.72-.24-.72-.8a2.29,2.29,0,0,1-1.81.8c-.95,0-1.71-.42-1.71-1.45s.87-1.42,1.74-1.59,1.74-.12,1.74-.76-.61-.86-1.15-.86c-.72,0-1.24.22-1.28,1h-.85c.05-1.28,1-1.73,2.18-1.73.93,0,1.94.21,1.94,1.42v2.66c0,.4,0,.58.27.58a.73.73,0,0,0,.26-.05Zm-1.38-2.65a4.38,4.38,0,0,1-1.54.35c-.55.1-1,.3-1,.93s.48.76,1,.76c1.12,0,1.58-.7,1.58-1.17Z"/><path d="M165.89,429.89h.8v.82h0a1.78,1.78,0,0,1,1.67-.94c1.36,0,1.78.78,1.78,1.89v3.4h-.85v-3.5a1,1,0,0,0-1.05-1,1.45,1.45,0,0,0-1.52,1.62v2.92h-.85Z"/><path d="M172,433.43c0,.76.69,1,1.39,1,.53,0,1.25-.12,1.25-.77s-.84-.77-1.69-1-1.68-.47-1.68-1.46,1-1.47,1.92-1.47c1.14,0,2,.36,2.12,1.62h-.85c-.06-.66-.64-.87-1.2-.87s-1.09.14-1.09.66.89.71,1.68.9,1.69.47,1.69,1.47c0,1.23-1.15,1.63-2.2,1.63s-2.13-.47-2.18-1.75Z"/><path d="M177.34,429h-.84v-1h.84Zm-.84.93h.84v5.17h-.84Z"/><path d="M179.84,429.89h1v.75h-1v3.21c0,.39.11.46.64.46h.39v.75h-.65c-.88,0-1.22-.18-1.22-1.13v-3.29h-.88v-.75H179v-1.54h.84Z"/><path d="M152.5,436.93h1l3.76,5.78h0v-5.78h.9v7.13h-1l-3.72-5.73h0v5.73h-.89Z"/><path d="M164.16,444a1.15,1.15,0,0,1-.61.14c-.44,0-.72-.24-.72-.8a2.29,2.29,0,0,1-1.82.8c-.94,0-1.71-.42-1.71-1.45s.87-1.42,1.75-1.59,1.74-.12,1.74-.76-.61-.86-1.15-.86c-.72,0-1.25.22-1.29,1h-.85c.05-1.28,1-1.73,2.19-1.73.93,0,1.94.21,1.94,1.42v2.66c0,.4,0,.58.27.58a.73.73,0,0,0,.26-.05Zm-1.38-2.65a4.38,4.38,0,0,1-1.54.35c-.56.1-1,.3-1,.93s.47.76,1,.76c1.12,0,1.58-.7,1.58-1.17Z"/><path d="M165,438.89h.79v.76h0a1.91,1.91,0,0,1,1.67-.88,1.37,1.37,0,0,1,1.42.88,1.91,1.91,0,0,1,1.62-.88c1,0,1.72.43,1.72,1.5v3.79h-.85v-3.39c0-.64-.17-1.15-1-1.15a1.25,1.25,0,0,0-1.35,1.32v3.22h-.85v-3.39c0-.67-.21-1.15-1-1.15a1.39,1.39,0,0,0-1.38,1.32v3.22H165Z"/><path d="M177.89,442.42a2.08,2.08,0,0,1-2.21,1.76c-1.64,0-2.42-1.14-2.47-2.72a2.48,2.48,0,0,1,2.42-2.69c1.83,0,2.39,1.71,2.34,3h-3.86a1.52,1.52,0,0,0,1.6,1.7,1.25,1.25,0,0,0,1.34-1Zm-.82-1.44a1.49,1.49,0,0,0-1.49-1.46,1.46,1.46,0,0,0-1.47,1.46Z"/><rect class="cls-5" x="102.9" y="403.27" width="197.13" height="51.27"/><rect class="cls-7" x="112.96" y="413.73" width="30.15" height="30.15"/><polyline class="cls-5" points="286.12 429.66 278.72 437.06 271.32 429.66"/><rect class="cls-7" x="336.77" y="769.79" width="213.5" height="243.69"/><rect class="cls-5" x="336.77" y="632" width="213.5" height="381.49"/><rect class="cls-5" x="336.77" y="632" width="213.5" height="34.41"/><path d="M396.44,643.45c3.18,0,4.79,2.52,4.79,5.24s-1.61,5.24-4.79,5.24-4.79-2.52-4.79-5.24S393.26,643.45,396.44,643.45Zm0,9.36c2.44,0,3.46-2.1,3.46-4.12s-1-4.12-3.46-4.12-3.46,2.1-3.46,4.12S394,652.81,396.44,652.81Z"/><path d="M408.65,653.69h-1.12v-1.15h0a2.5,2.5,0,0,1-2.35,1.32c-1.9,0-2.49-1.09-2.49-2.65v-4.76h1.19v4.9a1.37,1.37,0,0,0,1.47,1.46,2,2,0,0,0,2.14-2.27v-4.09h1.19Z"/><path d="M412.09,646.45h1.45v1h-1.45V652c0,.54.16.64.9.64h.55v1.05h-.91c-1.24,0-1.73-.25-1.73-1.58V647.5h-1.23v-1h1.23v-2.17h1.19Z"/><path d="M414.89,643.69h1.19v3.74h0a2.44,2.44,0,0,1,2.31-1.15c2.23,0,3.34,1.76,3.34,3.81s-1.09,3.77-3.31,3.77a2.77,2.77,0,0,1-2.34-1.14h0v1h-1.19Zm3.37,3.64c-1.6,0-2.22,1.37-2.22,2.73s.65,2.75,2.29,2.75,2.17-1.39,2.17-2.8S419.8,647.33,418.26,647.33Z"/><path d="M426.28,646.28c2.29,0,3.51,1.67,3.51,3.8s-1.22,3.78-3.51,3.78-3.52-1.67-3.52-3.78S424,646.28,426.28,646.28Zm0,6.53c1.24,0,2.25-1,2.25-2.73s-1-2.75-2.25-2.75-2.26,1-2.26,2.75S425,652.81,426.28,652.81Z"/><path d="M437.18,653.69h-1.12v-1.15h0a2.53,2.53,0,0,1-2.36,1.32c-1.9,0-2.49-1.09-2.49-2.65v-4.76h1.19v4.9a1.37,1.37,0,0,0,1.47,1.46,2,2,0,0,0,2.14-2.27v-4.09h1.19Z"/><path d="M439,646.45h1.12v1.15h0a2.53,2.53,0,0,1,2.36-1.32c1.9,0,2.49,1.09,2.49,2.65v4.76h-1.19v-4.9a1.37,1.37,0,0,0-1.47-1.46,2,2,0,0,0-2.15,2.27v4.09H439Z"/><path d="M453.23,653.69H452v-1h0a2.44,2.44,0,0,1-2.31,1.15c-2.23,0-3.33-1.77-3.33-3.81s1.09-3.77,3.3-3.77a2.77,2.77,0,0,1,2.34,1.14h0v-3.73h1.19Zm-3.36-.88c1.59,0,2.21-1.37,2.21-2.73s-.64-2.75-2.28-2.75-2.17,1.39-2.17,2.8S448.33,652.81,449.87,652.81Z"/><path d="M459.15,643.69h1.33v8.88h5.29v1.12h-6.62Z"/><path d="M468,645.15h-1.19v-1.46H468Zm-1.19,1.3H468v7.24h-1.19Z"/><path d="M469.84,646.45H471v1.15h0a2.52,2.52,0,0,1,2.35-1.32c1.91,0,2.5,1.09,2.5,2.65v4.76h-1.19v-4.9a1.37,1.37,0,0,0-1.47-1.46A2,2,0,0,0,471,649.6v4.09h-1.19Z"/><path d="M483.8,651.39a2.92,2.92,0,0,1-3.09,2.47c-2.31,0-3.41-1.6-3.48-3.81a3.49,3.49,0,0,1,3.41-3.77c2.56,0,3.35,2.4,3.28,4.15H478.5a2.13,2.13,0,0,0,2.25,2.38,1.75,1.75,0,0,0,1.88-1.42Zm-1.14-2a2.09,2.09,0,0,0-2.09-2,2.06,2.06,0,0,0-2.07,2Z"/><path d="M490,650.8h-1.35v-.95h1.49l.3-2.1H489v-1h1.56l.4-2.87h1l-.41,2.87h1.74l.4-2.87h1l-.4,2.87h1.24v1h-1.37l-.29,2.1h1.27v.95h-1.42l-.4,2.89h-1l.41-2.89h-1.74l-.4,2.89h-1Zm1.41-3-.3,2.1h1.74l.29-2.1Z"/><path d="M394,681.22h.95v6.34h3.78v.8H394Z"/><path d="M400.3,682.26h-.85v-1h.85Zm-.85.93h.85v5.17h-.85Z"/><path d="M401.62,683.19h.8V684h0a1.8,1.8,0,0,1,1.68-.94c1.36,0,1.78.78,1.78,1.89v3.4h-.85v-3.5a1,1,0,0,0-1.05-1,1.45,1.45,0,0,0-1.53,1.62v2.92h-.85Z"/><path d="M411.59,686.72a2.08,2.08,0,0,1-2.21,1.76c-1.65,0-2.43-1.14-2.48-2.72a2.49,2.49,0,0,1,2.43-2.69c1.83,0,2.39,1.71,2.34,3H407.8a1.52,1.52,0,0,0,1.61,1.7,1.25,1.25,0,0,0,1.34-1Zm-.82-1.44a1.49,1.49,0,0,0-1.49-1.46,1.47,1.47,0,0,0-1.48,1.46Z"/><path d="M394,690.22h1l3.76,5.79h0v-5.79h.9v7.14h-1l-3.73-5.73h0v5.73H394Z"/><path d="M405.34,697.36h-.8v-.82h0a1.8,1.8,0,0,1-1.68.94c-1.36,0-1.78-.78-1.78-1.89v-3.4h.85v3.5a1,1,0,0,0,1,1,1.45,1.45,0,0,0,1.53-1.62v-2.92h.85Z"/><path d="M406.62,692.19h.8V693h0a1.91,1.91,0,0,1,1.67-.88,1.37,1.37,0,0,1,1.42.88,1.91,1.91,0,0,1,1.62-.88c1,0,1.72.43,1.72,1.5v3.79H413V694c0-.64-.17-1.15-1-1.15a1.25,1.25,0,0,0-1.35,1.32v3.22h-.85V694c0-.67-.21-1.15-1-1.15a1.39,1.39,0,0,0-1.38,1.32v3.22h-.85Z"/><path d="M415.18,690.22H416v2.67h0a1.74,1.74,0,0,1,1.65-.82,2.42,2.42,0,0,1,2.38,2.72c0,1.46-.78,2.69-2.36,2.69a2,2,0,0,1-1.67-.81h0v.69h-.85Zm2.4,2.6c-1.14,0-1.58,1-1.58,1.95s.46,2,1.63,2,1.55-1,1.55-2S418.68,692.82,417.58,692.82Z"/><path d="M425.49,695.72a2.08,2.08,0,0,1-2.21,1.76c-1.65,0-2.43-1.14-2.48-2.72a2.49,2.49,0,0,1,2.43-2.69c1.83,0,2.39,1.71,2.34,3H421.7a1.52,1.52,0,0,0,1.61,1.7,1.25,1.25,0,0,0,1.34-1Zm-.82-1.44a1.49,1.49,0,0,0-1.49-1.46,1.47,1.47,0,0,0-1.48,1.46Z"/><path d="M426.42,692.19h.8v1.09h0a1.88,1.88,0,0,1,1.9-1.21v.9c-1.37,0-1.87.78-1.87,2.09v2.3h-.85Z"/><path d="M393.75,702h.66v4.44h2.65V707h-3.31Z"/><path d="M398.17,702.75h-.59V702h.59Zm-.59.65h.59V707h-.59Z"/><path d="M399.1,703.4h.56V704h0a1.26,1.26,0,0,1,1.18-.66c.95,0,1.24.55,1.24,1.32V707h-.59v-2.45a.69.69,0,0,0-.74-.73,1,1,0,0,0-1.07,1.14v2h-.59Z"/><path d="M406.08,705.88a1.47,1.47,0,0,1-1.55,1.23c-1.16,0-1.7-.8-1.74-1.91a1.75,1.75,0,0,1,1.7-1.88,1.77,1.77,0,0,1,1.64,2.07h-2.71a1.07,1.07,0,0,0,1.13,1.19.88.88,0,0,0,.94-.7Zm-.58-1a1,1,0,0,0-1-1,1,1,0,0,0-1,1Z"/><path d="M408.79,702h1.72a2.13,2.13,0,0,1,2.4,2.39c0,1.67-.74,2.61-2.4,2.61h-1.72Zm.67,4.44h1.1c.46,0,1.68-.12,1.68-2,0-1.19-.44-1.92-1.66-1.92h-1.12Z"/><path d="M416.71,705.88a1.47,1.47,0,0,1-1.55,1.23c-1.16,0-1.7-.8-1.74-1.91a1.75,1.75,0,0,1,1.71-1.88c1.28,0,1.67,1.2,1.63,2.07h-2.71a1.07,1.07,0,0,0,1.13,1.19.87.87,0,0,0,.94-.7Zm-.58-1a1,1,0,0,0-2.08,0Z"/><path d="M417.74,705.88c0,.54.49.7,1,.7s.87-.08.87-.54-.59-.54-1.18-.67-1.19-.33-1.19-1,.73-1,1.36-1c.8,0,1.43.25,1.48,1.13h-.59c-.05-.46-.45-.61-.84-.61s-.77.1-.77.47.63.49,1.18.63,1.18.33,1.18,1c0,.86-.8,1.14-1.54,1.14s-1.5-.33-1.53-1.23Z"/><path d="M423.34,704.57a.85.85,0,0,0-.9-.73c-.86,0-1.13.68-1.13,1.42s.3,1.32,1.06,1.32a.94.94,0,0,0,1-.88h.6a1.5,1.5,0,0,1-1.59,1.41,1.65,1.65,0,0,1-1.7-1.85,1.7,1.7,0,0,1,1.71-1.94,1.39,1.39,0,0,1,1.56,1.25Z"/><path d="M424.62,703.4h.56v.77h0a1.33,1.33,0,0,1,1.33-.85V704c-1,0-1.31.55-1.31,1.46V707h-.59Z"/><path d="M427.6,702.75H427V702h.6Zm-.6.65h.6V707H427Z"/><path d="M428.54,703.4h.6v.49h0a1.22,1.22,0,0,1,1.16-.57,1.7,1.7,0,0,1,1.67,1.9,1.68,1.68,0,0,1-1.66,1.89,1.39,1.39,0,0,1-1.17-.57h0v1.87h-.6Zm1.68.44c-.79,0-1.1.69-1.1,1.37s.32,1.37,1.14,1.37,1.08-.69,1.08-1.4S431,703.84,430.22,703.84Z"/><path d="M433.5,703.4h.72v.53h-.72v2.25c0,.27.08.32.45.32h.27V707h-.45c-.62,0-.86-.12-.86-.79v-2.3h-.62v-.53h.62v-1.08h.59Z"/><path d="M435.51,702.75h-.6V702h.6Zm-.6.65h.6V707h-.6Z"/><path d="M438,703.32a1.9,1.9,0,1,1-1.75,1.9A1.72,1.72,0,0,1,438,703.32Zm0,3.26c.63,0,1.13-.49,1.13-1.36s-.5-1.38-1.13-1.38-1.12.49-1.12,1.38S437.37,706.58,438,706.58Z"/><path d="M440.45,703.4H441V704h0a1.27,1.27,0,0,1,1.18-.66c.95,0,1.25.55,1.25,1.32V707h-.6v-2.45a.68.68,0,0,0-.73-.73,1,1,0,0,0-1.07,1.14v2h-.6Z"/><path d="M486,702.29h-1.59v-1.11h1.75l.34-2.45H484.8v-1.12h1.82l.47-3.35h1.13l-.47,3.35h2l.47-3.35h1.13l-.47,3.35h1.45v1.12h-1.6l-.34,2.45h1.48v1.11h-1.65l-.47,3.37h-1.13l.47-3.37h-2l-.47,3.37h-1.13Zm1.63-3.56-.34,2.45h2l.34-2.45Z"/><path d="M494.28,703.85h1.81v1.65a2.43,2.43,0,0,1-1.8,2.57v-.82a1.55,1.55,0,0,0,.95-1.59h-1Z"/><path d="M504.16,702.29h-1.58v-1.11h1.75l.34-2.45H503v-1.12h1.82l.47-3.35h1.13l-.48,3.35h2l.48-3.35h1.13l-.48,3.35h1.46v1.12H509l-.34,2.45h1.49v1.11h-1.65l-.48,3.37h-1.13l.48-3.37h-2l-.47,3.37h-1.13Zm1.64-3.56-.35,2.45h2l.35-2.45Z"/><path d="M512.47,703.85h1.82v1.65a2.43,2.43,0,0,1-1.8,2.57v-.82a1.57,1.57,0,0,0,1-1.59h-1Z"/><path d="M522.36,702.29h-1.59v-1.11h1.75l.34-2.45H521.2v-1.12H523l.48-3.35h1.12l-.47,3.35h2l.47-3.35h1.13l-.47,3.35h1.45v1.12h-1.6l-.34,2.45h1.48v1.11h-1.65l-.47,3.37H525l.47-3.37h-2l-.48,3.37h-1.13Zm1.63-3.56-.34,2.45h2l.34-2.45Z"/><rect class="cls-6" x="344.38" y="641.81" width="20.1" height="3.28"/><rect class="cls-6" x="344.38" y="647.56" width="20.1" height="3.28"/><rect class="cls-6" x="344.38" y="653.32" width="20.1" height="3.28"/><rect class="cls-5" x="336.77" y="666.41" width="213.5" height="103.38"/><rect class="cls-7" x="354.43" y="676.87" width="30.15" height="30.15"/><line class="cls-5" x1="354.43" y1="726.41" x2="527.6" y2="726.41"/><circle class="cls-7" cx="366.98" cy="748.71" r="8.15"/><circle class="cls-7" cx="406.91" cy="748.71" r="8.15"/><circle class="cls-7" cx="444.39" cy="748.71" r="8.15"/><rect class="cls-7" x="94.72" y="886.15" width="213.5" height="127.33"/><rect class="cls-5" x="94.72" y="632" width="213.5" height="381.49"/><rect class="cls-5" x="94.72" y="632" width="213.5" height="34.41"/><path d="M186.44,646.62a2.19,2.19,0,0,0-2.48-2c-1.12,0-2.24.41-2.24,1.71s1.59,1.42,3.2,1.78,3.2.92,3.2,2.89-2.09,3-3.91,3c-2.24,0-4.13-1.09-4.13-3.53h1.26c0,1.68,1.4,2.41,2.91,2.41,1.21,0,2.54-.38,2.54-1.82s-1.6-1.61-3.2-2-3.21-.82-3.21-2.65c0-2,1.81-2.93,3.63-2.93,2.05,0,3.6,1,3.69,3.17Z"/><path d="M195.71,651.39a2.93,2.93,0,0,1-3.1,2.47c-2.31,0-3.4-1.6-3.48-3.81a3.49,3.49,0,0,1,3.41-3.77c2.56,0,3.35,2.4,3.28,4.15H190.4a2.13,2.13,0,0,0,2.25,2.38,1.75,1.75,0,0,0,1.88-1.42Zm-1.15-2a2.09,2.09,0,0,0-2.09-2,2.06,2.06,0,0,0-2.07,2Z"/><path d="M203.46,653.66a1.57,1.57,0,0,1-.85.2c-.62,0-1-.34-1-1.12a3.22,3.22,0,0,1-2.55,1.12c-1.32,0-2.4-.59-2.4-2,0-1.64,1.22-2,2.45-2.23s2.44-.17,2.44-1.06-.85-1.21-1.61-1.21c-1,0-1.75.31-1.81,1.37h-1.19c.07-1.79,1.46-2.42,3.07-2.42,1.3,0,2.72.29,2.72,2V652c0,.56,0,.81.38.81a1.18,1.18,0,0,0,.36-.07ZM201.53,650a6,6,0,0,1-2.16.49c-.78.14-1.46.42-1.46,1.3s.68,1.07,1.4,1.07c1.57,0,2.22-1,2.22-1.64Z"/><path d="M204.52,646.45h1.12V648h0a2.62,2.62,0,0,1,2.66-1.7v1.26c-1.92,0-2.62,1.09-2.62,2.93v3.22h-1.19Z"/><path d="M213.89,648.77a1.68,1.68,0,0,0-1.79-1.44c-1.73,0-2.26,1.36-2.26,2.83s.6,2.65,2.12,2.65a1.88,1.88,0,0,0,2-1.77h1.21a3,3,0,0,1-3.19,2.82c-2.21,0-3.39-1.54-3.39-3.7s1.12-3.88,3.42-3.88c1.64,0,2.95.77,3.12,2.49Z"/><path d="M216.49,643.69h1.19v3.82h0a2.44,2.44,0,0,1,2.28-1.23c1.91,0,2.5,1.09,2.5,2.65v4.76h-1.2v-4.9a1.37,1.37,0,0,0-1.47-1.46,2,2,0,0,0-2.14,2.27v4.09h-1.19Z"/><rect class="cls-6" x="102.33" y="641.81" width="20.1" height="3.28"/><rect class="cls-6" x="102.33" y="647.56" width="20.1" height="3.28"/><rect class="cls-6" x="102.33" y="653.32" width="20.1" height="3.28"/><rect class="cls-5" x="112.96" y="691.95" width="174.92" height="19.69"/><path class="cls-6" d="M126.65,705.64h-1l-1.63-6h0l-1.64,6h-1l-1.83-7.14h1l1.4,5.94h0l1.59-5.94h1l1.58,5.94h0l1.45-5.94h1Z"/><path class="cls-6" d="M129.33,698.5h.85v2.73h0a1.75,1.75,0,0,1,1.63-.88c1.35,0,1.77.78,1.77,1.89v3.4h-.85v-3.5a1,1,0,0,0-1-1,1.45,1.45,0,0,0-1.53,1.62v2.92h-.85Z"/><path class="cls-6" d="M139.46,705.62a1.15,1.15,0,0,1-.61.14c-.44,0-.72-.24-.72-.8a2.29,2.29,0,0,1-1.81.8c-.94,0-1.71-.42-1.71-1.45s.87-1.42,1.74-1.59,1.74-.12,1.74-.76-.61-.86-1.15-.86c-.72,0-1.24.22-1.28,1h-.85c.05-1.28,1-1.73,2.18-1.73.93,0,1.94.21,1.94,1.42v2.66c0,.4,0,.58.27.58a.73.73,0,0,0,.26,0ZM138.08,703a4.38,4.38,0,0,1-1.54.35c-.55.1-1,.3-1,.93s.48.76,1,.76c1.12,0,1.58-.7,1.58-1.17Z"/><path class="cls-6" d="M141.44,700.47h1v.75h-1v3.21c0,.39.1.46.64.46h.38v.75h-.64c-.88,0-1.23-.18-1.23-1.13v-3.29h-.88v-.75h.88v-1.55h.85Z"/><path class="cls-6" d="M147.08,699.54h-.84v-1h.84Zm-.84.93h.84v5.17h-.84Z"/><path class="cls-6" d="M148.92,704c0,.76.69,1,1.39,1,.53,0,1.25-.12,1.25-.77s-.84-.77-1.69-1-1.68-.47-1.68-1.46,1-1.47,1.92-1.47c1.14,0,2,.36,2.12,1.62h-.85c-.06-.66-.64-.87-1.2-.87s-1.1.14-1.1.66.9.71,1.69.9,1.69.47,1.69,1.47c0,1.23-1.15,1.63-2.2,1.63s-2.13-.47-2.18-1.75Z"/><path class="cls-6" d="M157.37,700.47h1v.75h-1v3.21c0,.39.1.46.63.46h.39v.75h-.64c-.88,0-1.23-.18-1.23-1.13v-3.29h-.88v-.75h.88v-1.55h.85Z"/><path class="cls-6" d="M159.33,698.5h.85v2.73h0a1.75,1.75,0,0,1,1.63-.88c1.36,0,1.78.78,1.78,1.89v3.4h-.85v-3.5a1,1,0,0,0-1-1,1.45,1.45,0,0,0-1.53,1.62v2.92h-.85Z"/><path class="cls-6" d="M169.3,704a2.08,2.08,0,0,1-2.21,1.76c-1.65,0-2.42-1.14-2.48-2.72a2.49,2.49,0,0,1,2.43-2.69c1.83,0,2.39,1.71,2.34,3h-3.87a1.52,1.52,0,0,0,1.61,1.7,1.25,1.25,0,0,0,1.34-1Zm-.82-1.44A1.49,1.49,0,0,0,167,701.1a1.47,1.47,0,0,0-1.48,1.46Z"/><path class="cls-6" d="M174.22,700.47h1v.75h-1v3.21c0,.39.11.46.64.46h.39v.75h-.65c-.88,0-1.22-.18-1.22-1.13v-3.29h-.88v-.75h.88v-1.55h.84Z"/><path class="cls-6" d="M176.16,700.47h.8v1.09h0a1.88,1.88,0,0,1,1.9-1.21v.9c-1.37,0-1.87.78-1.87,2.09v2.3h-.85Z"/><path class="cls-6" d="M184.1,705.62a1.15,1.15,0,0,1-.61.14c-.44,0-.72-.24-.72-.8a2.29,2.29,0,0,1-1.82.8c-.94,0-1.71-.42-1.71-1.45s.87-1.42,1.75-1.59,1.74-.12,1.74-.76-.61-.86-1.15-.86c-.72,0-1.25.22-1.29,1h-.85c.05-1.28,1-1.73,2.19-1.73.93,0,1.94.21,1.94,1.42v2.66c0,.4,0,.58.27.58a.73.73,0,0,0,.26,0ZM182.72,703a4.38,4.38,0,0,1-1.54.35c-.56.1-1,.3-1,.93s.48.76,1,.76c1.12,0,1.58-.7,1.58-1.17Z"/><path class="cls-6" d="M184.89,700.47h.8v.82h0a1.8,1.8,0,0,1,1.68-.94c1.36,0,1.78.78,1.78,1.89v3.4h-.85v-3.5a1,1,0,0,0-1-1,1.45,1.45,0,0,0-1.53,1.62v2.92h-.85Z"/><path class="cls-6" d="M191,704c0,.76.69,1,1.39,1,.53,0,1.25-.12,1.25-.77s-.84-.77-1.69-1-1.69-.47-1.69-1.46,1-1.47,1.93-1.47c1.14,0,2.05.36,2.12,1.62h-.85c-.06-.66-.64-.87-1.2-.87s-1.1.14-1.1.66.9.71,1.69.9,1.69.47,1.69,1.47c0,1.23-1.15,1.63-2.2,1.63s-2.14-.47-2.19-1.75Z"/><path class="cls-6" d="M196.35,699.54h-.85v-1h.85Zm-.85.93h.85v5.17h-.85Z"/><path class="cls-6" d="M198.85,700.47h1v.75h-1v3.21c0,.39.11.46.64.46h.39v.75h-.65c-.88,0-1.23-.18-1.23-1.13v-3.29h-.88v-.75H198v-1.55h.85Z"/><path class="cls-6" d="M208.18,705.62a1.15,1.15,0,0,1-.61.14c-.44,0-.72-.24-.72-.8a2.29,2.29,0,0,1-1.82.8c-.94,0-1.71-.42-1.71-1.45s.87-1.42,1.75-1.59,1.74-.12,1.74-.76-.61-.86-1.15-.86c-.72,0-1.25.22-1.29,1h-.85c0-1.28,1-1.73,2.19-1.73.93,0,1.94.21,1.94,1.42v2.66c0,.4,0,.58.27.58a.73.73,0,0,0,.26,0ZM206.8,703a4.38,4.38,0,0,1-1.54.35c-.56.1-1,.3-1,.93s.48.76,1,.76c1.12,0,1.58-.7,1.58-1.17Z"/><path class="cls-6" d="M213.43,705.2c0,1.68-.77,2.54-2.4,2.54-1,0-2.09-.39-2.14-1.52h.85c0,.62.78.84,1.34.84,1.11,0,1.55-.8,1.55-2v-.34h0a1.72,1.72,0,0,1-1.61.94,2.34,2.34,0,0,1-2.31-2.62,2.44,2.44,0,0,1,2.39-2.73,1.69,1.69,0,0,1,1.54.86h0v-.74h.8Zm-.84-2.25c0-.91-.4-1.85-1.47-1.85s-1.53.89-1.53,1.88.34,2,1.46,2S212.59,703.92,212.59,703Z"/><path class="cls-6" d="M219.12,704a2.08,2.08,0,0,1-2.21,1.76c-1.65,0-2.43-1.14-2.48-2.72a2.49,2.49,0,0,1,2.43-2.69c1.83,0,2.39,1.71,2.34,3h-3.87a1.52,1.52,0,0,0,1.61,1.7,1.25,1.25,0,0,0,1.34-1Zm-.82-1.44a1.49,1.49,0,0,0-1.49-1.46,1.47,1.47,0,0,0-1.48,1.46Z"/><path class="cls-6" d="M220.08,700.47h.8v.82h0a1.8,1.8,0,0,1,1.68-.94c1.36,0,1.78.78,1.78,1.89v3.4h-.85v-3.5a1,1,0,0,0-1-1,1.45,1.45,0,0,0-1.53,1.62v2.92h-.85Z"/><path class="cls-6" d="M229.15,702.13a1.2,1.2,0,0,0-1.28-1c-1.23,0-1.61,1-1.61,2s.43,1.89,1.51,1.89a1.34,1.34,0,0,0,1.42-1.26h.87a2.15,2.15,0,0,1-2.28,2,2.35,2.35,0,0,1-2.42-2.64c0-1.55.8-2.77,2.44-2.77a2,2,0,0,1,2.23,1.78Z"/><path class="cls-6" d="M233,706.33c-.39,1-.74,1.38-1.5,1.38a1.69,1.69,0,0,1-.59-.09v-.78a1.74,1.74,0,0,0,.5.12.73.73,0,0,0,.7-.47l.35-.88-2.05-5.14h1l1.51,4.23h0l1.45-4.23h.9Z"/><path class="cls-6" d="M238.79,700.47h.8v.82h0a1.8,1.8,0,0,1,1.68-.94c1.36,0,1.78.78,1.78,1.89v3.4h-.85v-3.5a1,1,0,0,0-1.05-1,1.45,1.45,0,0,0-1.53,1.62v2.92h-.85Z"/><path class="cls-6" d="M248.93,705.62a1.15,1.15,0,0,1-.61.14c-.44,0-.72-.24-.72-.8a2.29,2.29,0,0,1-1.82.8c-.94,0-1.71-.42-1.71-1.45s.87-1.42,1.75-1.59,1.74-.12,1.74-.76-.61-.86-1.15-.86c-.72,0-1.25.22-1.29,1h-.85c0-1.28,1-1.73,2.19-1.73.93,0,1.94.21,1.94,1.42v2.66c0,.4,0,.58.27.58a.73.73,0,0,0,.26,0ZM247.55,703a4.38,4.38,0,0,1-1.54.35c-.56.1-1,.3-1,.93s.48.76,1,.76c1.12,0,1.58-.7,1.58-1.17Z"/><path class="cls-6" d="M249.72,700.47h.8v.76h0a1.91,1.91,0,0,1,1.67-.88,1.37,1.37,0,0,1,1.42.88,1.91,1.91,0,0,1,1.62-.88c1,0,1.72.43,1.72,1.5v3.79h-.85v-3.39c0-.64-.17-1.15-1-1.15a1.25,1.25,0,0,0-1.35,1.32v3.22h-.85v-3.39c0-.67-.21-1.15-1-1.15a1.39,1.39,0,0,0-1.38,1.32v3.22h-.85Z"/><path class="cls-6" d="M262.66,704a2.08,2.08,0,0,1-2.21,1.76c-1.65,0-2.43-1.14-2.48-2.72a2.49,2.49,0,0,1,2.43-2.69c1.83,0,2.39,1.71,2.34,3h-3.87a1.52,1.52,0,0,0,1.61,1.7,1.25,1.25,0,0,0,1.34-1Zm-.82-1.44a1.49,1.49,0,0,0-1.49-1.46,1.47,1.47,0,0,0-1.48,1.46Z"/><path class="cls-6" d="M263.53,700.73a2.19,2.19,0,0,1,2.24-2.4,1.93,1.93,0,0,1,2.11,2A2.21,2.21,0,0,1,267,702a2,2,0,0,0-.87,1.48v.39h-.85v-.47a2.27,2.27,0,0,1,.9-1.67,1.85,1.85,0,0,0,.78-1.51,1.14,1.14,0,0,0-1.21-1.17c-.95,0-1.4.73-1.39,1.65Zm1.63,3.8h1.11v1.11h-1.11Z"/><rect class="cls-7" x="115.13" y="869.84" width="30.15" height="16.31"/><path d="M154.12,762.94h-2.37v-.8h5.7v.8h-2.38v6.34h-.95Z"/><path d="M157.16,764.11h.8v1.09h0a1.86,1.86,0,0,1,1.89-1.21v.9c-1.37,0-1.87.78-1.87,2.09v2.3h-.84Z"/><path d="M165.09,769.26a1.15,1.15,0,0,1-.61.14c-.44,0-.72-.24-.72-.8a2.29,2.29,0,0,1-1.81.8c-.95,0-1.71-.42-1.71-1.45s.87-1.42,1.74-1.59,1.74-.12,1.74-.76-.61-.86-1.15-.86c-.72,0-1.24.22-1.28,1h-.85c.05-1.28,1-1.73,2.18-1.73.93,0,1.94.21,1.94,1.42v2.66c0,.4,0,.58.27.58a.73.73,0,0,0,.26,0Zm-1.38-2.65a4.38,4.38,0,0,1-1.54.35c-.55.1-1,.3-1,.93s.48.76,1,.76c1.12,0,1.58-.7,1.58-1.17Z"/><path d="M165.89,764.11h.8v.82h0a1.78,1.78,0,0,1,1.67-.94c1.36,0,1.78.78,1.78,1.89v3.4h-.85v-3.5a1,1,0,0,0-1.05-1,1.45,1.45,0,0,0-1.52,1.62v2.92h-.85Z"/><path d="M172,767.65c0,.76.69,1,1.39,1,.53,0,1.25-.12,1.25-.77s-.84-.77-1.69-1-1.68-.47-1.68-1.46,1-1.47,1.92-1.47c1.14,0,2,.36,2.12,1.62h-.85c-.06-.66-.64-.87-1.2-.87s-1.09.14-1.09.66.89.71,1.68.9,1.69.47,1.69,1.47c0,1.23-1.15,1.63-2.2,1.63s-2.13-.47-2.18-1.75Z"/><path d="M177.34,763.18h-.84v-1h.84Zm-.84.93h.84v5.17h-.84Z"/><path d="M179.84,764.11h1v.75h-1v3.21c0,.39.11.46.64.46h.39v.75h-.65c-.88,0-1.22-.18-1.22-1.13v-3.29h-.88v-.75H179v-1.55h.84Z"/><path d="M152.5,771.14h1l3.76,5.79h0v-5.79h.9v7.14h-1l-3.72-5.73h0v5.73h-.89Z"/><path d="M164.16,778.26a1.15,1.15,0,0,1-.61.14c-.44,0-.72-.24-.72-.8a2.29,2.29,0,0,1-1.82.8c-.94,0-1.71-.42-1.71-1.45s.87-1.42,1.75-1.59,1.74-.12,1.74-.76-.61-.86-1.15-.86c-.72,0-1.25.22-1.29,1h-.85c.05-1.28,1-1.73,2.19-1.73.93,0,1.94.21,1.94,1.42v2.66c0,.4,0,.58.27.58a.73.73,0,0,0,.26,0Zm-1.38-2.65a4.38,4.38,0,0,1-1.54.35c-.56.1-1,.3-1,.93s.47.76,1,.76c1.12,0,1.58-.7,1.58-1.17Z"/><path d="M165,773.11h.79v.76h0a1.91,1.91,0,0,1,1.67-.88,1.37,1.37,0,0,1,1.42.88,1.91,1.91,0,0,1,1.62-.88c1,0,1.72.43,1.72,1.5v3.79h-.85v-3.39c0-.64-.17-1.15-1-1.15a1.25,1.25,0,0,0-1.35,1.32v3.22h-.85v-3.39c0-.67-.21-1.15-1-1.15a1.39,1.39,0,0,0-1.38,1.32v3.22H165Z"/><path d="M177.89,776.64a2.08,2.08,0,0,1-2.21,1.76c-1.64,0-2.42-1.14-2.47-2.72a2.48,2.48,0,0,1,2.42-2.69c1.83,0,2.39,1.71,2.34,3h-3.86a1.52,1.52,0,0,0,1.6,1.7,1.25,1.25,0,0,0,1.34-1Zm-.82-1.44a1.49,1.49,0,0,0-1.49-1.46,1.46,1.46,0,0,0-1.47,1.46Z"/><rect class="cls-5" x="94.72" y="731.23" width="213.5" height="154.92"/><rect class="cls-7" x="112.96" y="747.95" width="30.15" height="30.15"/><path d="M154.28,825.51H151.9v-.8h5.71v.8h-2.38v6.33h-.95Z"/><path d="M157.31,826.68h.8v1.09h0a1.88,1.88,0,0,1,1.9-1.21v.9c-1.37,0-1.87.78-1.87,2.08v2.3h-.85Z"/><path d="M165.25,831.82a1.15,1.15,0,0,1-.61.14c-.44,0-.72-.24-.72-.8a2.29,2.29,0,0,1-1.82.8c-.94,0-1.71-.42-1.71-1.45s.87-1.41,1.75-1.58,1.74-.12,1.74-.76-.61-.86-1.15-.86c-.72,0-1.25.22-1.29,1h-.85c0-1.28,1-1.73,2.19-1.73.93,0,1.94.21,1.94,1.42v2.65c0,.4,0,.58.27.58a.73.73,0,0,0,.26-.05Zm-1.38-2.65a4.36,4.36,0,0,1-1.54.36c-.56.1-1,.3-1,.92s.48.76,1,.76c1.12,0,1.58-.7,1.58-1.17Z"/><path d="M166,826.68h.8v.82h0a1.8,1.8,0,0,1,1.68-.94c1.36,0,1.78.78,1.78,1.89v3.39h-.85v-3.49a1,1,0,0,0-1.05-1,1.45,1.45,0,0,0-1.53,1.62v2.91H166Z"/><path d="M172.12,830.21c0,.76.69,1,1.39,1,.53,0,1.25-.12,1.25-.77s-.84-.77-1.69-1-1.69-.47-1.69-1.46,1-1.47,1.93-1.47c1.14,0,2.05.36,2.12,1.62h-.85c-.06-.66-.64-.87-1.2-.87s-1.1.14-1.1.66.9.71,1.69.9,1.69.46,1.69,1.46c0,1.23-1.15,1.63-2.2,1.63s-2.14-.47-2.19-1.75Z"/><path d="M177.5,825.75h-.85v-1h.85Zm-.85.93h.85v5.16h-.85Z"/><path d="M180,826.68h1v.75h-1v3.2c0,.39.11.46.64.46H181v.75h-.65c-.88,0-1.23-.18-1.23-1.13v-3.28h-.88v-.75h.88v-1.55H180Z"/><path d="M152.65,833.71h1l3.76,5.78h0v-5.78h.89v7.13h-1l-3.73-5.72h0v5.72h-.9Z"/><path d="M164.32,840.82a1.15,1.15,0,0,1-.61.14c-.44,0-.72-.24-.72-.8a2.29,2.29,0,0,1-1.82.8c-.94,0-1.71-.42-1.71-1.45s.87-1.41,1.75-1.58,1.74-.12,1.74-.76-.61-.86-1.15-.86c-.72,0-1.25.22-1.29,1h-.85c.05-1.28,1-1.73,2.19-1.73.93,0,1.94.21,1.94,1.42v2.65c0,.4,0,.58.27.58a.73.73,0,0,0,.26-.05Zm-1.38-2.65a4.36,4.36,0,0,1-1.54.36c-.56.1-1,.3-1,.92s.48.76,1,.76c1.12,0,1.58-.7,1.58-1.17Z"/><path d="M165.11,835.68h.8v.76h0a1.91,1.91,0,0,1,1.67-.88,1.37,1.37,0,0,1,1.42.88,1.91,1.91,0,0,1,1.62-.88c1,0,1.71.43,1.71,1.5v3.78h-.85v-3.38c0-.64-.17-1.15-1-1.15a1.25,1.25,0,0,0-1.35,1.32v3.21h-.85v-3.38c0-.67-.21-1.15-1-1.15a1.39,1.39,0,0,0-1.38,1.32v3.21h-.85Z"/><path d="M178.05,839.21a2.08,2.08,0,0,1-2.21,1.75c-1.65,0-2.43-1.14-2.48-2.71a2.49,2.49,0,0,1,2.43-2.69c1.83,0,2.39,1.71,2.34,3h-3.87a1.52,1.52,0,0,0,1.61,1.7,1.25,1.25,0,0,0,1.34-1Zm-.82-1.44a1.49,1.49,0,0,0-1.49-1.46,1.47,1.47,0,0,0-1.48,1.46Z"/><rect class="cls-7" x="113.11" y="810.51" width="30.15" height="30.15"/><line class="cls-5" x1="112.38" y1="795.07" x2="287.88" y2="795.07"/><line class="cls-5" x1="112.38" y1="856.84" x2="287.88" y2="856.84"/></g></svg>